<svg width="26" height="8" viewBox="0 0 26 8" fill="none" xmlns="http://www.w3.org/2000/svg">
<path d="M20.9634 0.75799L23.6956 3.54824H0.44346C0.198544 3.54824 0 3.74678 0 3.9917C0 4.23662 0.198544 4.43516 0.44346 4.43516H23.6956L20.9634 7.22541C20.8819 7.30868 20.8361 7.42162 20.8361 7.53938C20.8361 7.65714 20.8819 7.77008 20.9634 7.85335C21.0449 7.93662 21.1555 7.9834 21.2708 7.9834C21.386 7.9834 21.4966 7.93662 21.5781 7.85335L25.0509 4.30567C25.0913 4.26448 25.1234 4.21554 25.1453 4.16166C25.1672 4.10779 25.1784 4.05003 25.1784 3.9917C25.1784 3.93337 25.1672 3.87561 25.1453 3.82174C25.1234 3.76786 25.0913 3.71892 25.0509 3.67773L21.5781 0.13005C21.4966 0.0467805 21.386 0 21.2708 0C21.1555 0 21.0449 0.0467805 20.9634 0.13005C20.8819 0.21332 20.8361 0.326259 20.8361 0.44402C20.8361 0.561782 20.8819 0.67472 20.9634 0.75799Z" fill="#662773"/>
</svg>
