<svg width="14" height="26" viewBox="0 0 14 26" fill="none" xmlns="http://www.w3.org/2000/svg">
<path d="M2.67695 25.0099C2.27101 25.0107 1.87761 24.8693 1.56503 24.6103C1.38911 24.4645 1.24369 24.2853 1.1371 24.0832C1.03051 23.8811 0.964841 23.6599 0.943861 23.4323C0.922881 23.2048 0.946999 22.9753 1.01483 22.7571C1.08267 22.5389 1.19289 22.3362 1.33917 22.1606L9.12257 12.8483L1.61715 3.51869C1.47284 3.34098 1.36507 3.1365 1.30003 2.917C1.235 2.6975 1.21399 2.46731 1.23821 2.23967C1.26243 2.01203 1.33139 1.79141 1.44115 1.59051C1.55091 1.38961 1.69928 1.21237 1.87776 1.069C2.05752 0.910839 2.26803 0.791538 2.49608 0.718588C2.72413 0.645638 2.9648 0.620613 3.20298 0.645084C3.44116 0.669555 3.67171 0.742993 3.88016 0.860789C4.08862 0.978586 4.27047 1.1382 4.41431 1.32961L12.8058 11.7538C13.0613 12.0647 13.201 12.4546 13.201 12.857C13.201 13.2594 13.0613 13.6494 12.8058 13.9603L4.11896 24.3844C3.94467 24.5947 3.72327 24.7609 3.47273 24.8696C3.22218 24.9782 2.94955 25.0263 2.67695 25.0099Z" fill="#662773"/>
</svg>
