<svg width="26" height="9" viewBox="0 0 26 9" fill="none" xmlns="http://www.w3.org/2000/svg">
<path d="M20.9634 1.18133L23.6956 3.97158H0.44346C0.198544 3.97158 0 4.17012 0 4.41504C0 4.65996 0.198544 4.8585 0.44346 4.8585H23.6956L20.9634 7.64875C20.8819 7.73202 20.8361 7.84496 20.8361 7.96272C20.8361 8.08048 20.8819 8.19342 20.9634 8.27669C21.0449 8.35996 21.1555 8.40674 21.2708 8.40674C21.386 8.40674 21.4966 8.35996 21.5781 8.27669L25.0509 4.72901C25.0913 4.68782 25.1234 4.63888 25.1453 4.585C25.1672 4.53113 25.1784 4.47337 25.1784 4.41504C25.1784 4.35671 25.1672 4.29895 25.1453 4.24508C25.1234 4.1912 25.0913 4.14226 25.0509 4.10107L21.5781 0.55339C21.4966 0.47012 21.386 0.42334 21.2708 0.42334C21.1555 0.42334 21.0449 0.47012 20.9634 0.55339C20.8819 0.63666 20.8361 0.749599 20.8361 0.86736C20.8361 0.985122 20.8819 1.09806 20.9634 1.18133Z" fill="black"/>
</svg>
