<svg width="14" height="26" viewBox="0 0 14 26" fill="none" xmlns="http://www.w3.org/2000/svg">
<path d="M11.0278 25.01C10.7682 25.0109 10.5118 24.9536 10.2773 24.8423C10.0428 24.7311 9.83615 24.5687 9.67263 24.3672L1.28116 13.943C1.02562 13.6321 0.885925 13.2422 0.885925 12.8397C0.885925 12.4373 1.02562 12.0474 1.28116 11.7365L9.96798 1.31232C10.2629 0.957521 10.6866 0.734401 11.146 0.692044C11.6055 0.649688 12.0629 0.791564 12.4177 1.08646C12.7725 1.38136 12.9956 1.80512 13.0379 2.26453C13.0803 2.72393 12.9384 3.18135 12.6435 3.53615L4.8775 12.8484L12.3829 22.1607C12.5954 22.4157 12.7303 22.7263 12.7718 23.0556C12.8133 23.3849 12.7596 23.7192 12.617 24.0189C12.4745 24.3187 12.249 24.5713 11.9674 24.747C11.6857 24.9226 11.3597 25.0139 11.0278 25.01Z" fill="#D72655"/>
</svg>
