<svg width="11" height="20" viewBox="0 0 11 20" fill="none" xmlns="http://www.w3.org/2000/svg">
<path d="M1.87027 19.9615C1.55101 19.9621 1.2416 19.8509 0.995773 19.6472C0.857413 19.5325 0.743043 19.3917 0.659212 19.2327C0.575381 19.0737 0.523736 18.8998 0.507236 18.7208C0.490735 18.5418 0.509704 18.3614 0.563054 18.1897C0.616404 18.0181 0.703087 17.8587 0.818141 17.7206L6.9396 10.3967L1.03677 3.05917C0.923264 2.91941 0.838504 2.75859 0.787358 2.58596C0.736211 2.41333 0.719686 2.23229 0.738732 2.05325C0.757779 1.87422 0.812021 1.70071 0.898341 1.5427C0.984662 1.3847 1.10136 1.24531 1.24172 1.13255C1.3831 1.00816 1.54866 0.91433 1.72802 0.856957C1.90737 0.799583 2.09665 0.779902 2.28398 0.799147C2.4713 0.818393 2.65263 0.87615 2.81657 0.968794C2.98051 1.06144 3.12354 1.18697 3.23667 1.33751L9.83637 9.5359C10.0373 9.78039 10.1472 10.0871 10.1472 10.4036C10.1472 10.7201 10.0373 11.0267 9.83637 11.2712L3.00438 19.4696C2.8673 19.635 2.69318 19.7657 2.49613 19.8512C2.29908 19.9366 2.08466 19.9744 1.87027 19.9615Z" fill="#662773"/>
</svg>
