<svg width="11" height="20" viewBox="0 0 11 20" fill="none" xmlns="http://www.w3.org/2000/svg">
<path d="M8.89723 19.9616C8.69309 19.9623 8.4914 19.9172 8.30697 19.8298C8.12253 19.7423 7.96004 19.6146 7.83144 19.456L1.23174 11.2576C1.03077 11.0132 0.920898 10.7065 0.920898 10.39C0.920898 10.0735 1.03077 9.76682 1.23174 9.52232L8.06372 1.32394C8.29566 1.0449 8.62893 0.869417 8.99025 0.836104C9.35156 0.802792 9.7113 0.914374 9.99035 1.1463C10.2694 1.37824 10.4449 1.71152 10.4782 2.07283C10.5115 2.43414 10.3999 2.79388 10.168 3.07293L4.06018 10.3968L9.96302 17.7207C10.1301 17.9213 10.2362 18.1655 10.2689 18.4245C10.3015 18.6835 10.2593 18.9464 10.1471 19.1822C10.035 19.4179 9.85771 19.6166 9.6362 19.7547C9.41469 19.8929 9.15826 19.9647 8.89723 19.9616Z" fill="#D72655"/>
</svg>
