<svg width="27" height="9" viewBox="0 0 27 9" fill="none" xmlns="http://www.w3.org/2000/svg">
<path d="M22.4801 0.854512L25.4099 4.00007H0.499929C0.223825 4.00007 0 4.2239 0 4.5C0 4.7761 0.223826 4.99993 0.49993 4.99993H25.4099L22.4801 8.14549C22.3927 8.23936 22.3436 8.36668 22.3436 8.49944C22.3436 8.6322 22.3927 8.75952 22.4801 8.85339C22.5675 8.94726 22.686 9 22.8096 9C22.9333 9 23.0518 8.94726 23.1392 8.85339L26.8632 4.85395C26.9066 4.80751 26.941 4.75234 26.9645 4.69161C26.9879 4.63087 27 4.56576 27 4.5C27 4.43424 26.9879 4.36913 26.9645 4.30839C26.941 4.24766 26.9066 4.19249 26.8632 4.14605L23.1392 0.146611C23.0518 0.0527375 22.9333 0 22.8096 0C22.686 0 22.5675 0.0527374 22.4801 0.146611C22.3927 0.240484 22.3436 0.367804 22.3436 0.500561C22.3436 0.633318 22.3927 0.760638 22.4801 0.854512Z" fill="#D72655"/>
</svg>
