<svg width="2166" height="5258" viewBox="0 0 2166 5258" fill="none" xmlns="http://www.w3.org/2000/svg">
<path d="M225.664 -469.836C171.695 -438.809 120.539 -403.128 72.779 -363.199C55.6009 -350.816 39.2558 -337.316 23.8496 -322.788C-203.917 100.578 -203.072 627.43 -28.7962 1189.92C-18.5062 1223.07 -3.29962 1227.06 7.93102 1211.5C19.1617 1195.94 41.9152 1167.5 77.9156 1123.07C328.998 758.205 679.743 667.167 1015.81 601.949L1044.12 594.63C1051.7 592.667 1058.55 588.596 1063.9 582.889C1069.25 577.183 1072.87 570.076 1074.34 562.394C1107.58 377.441 1287.8 95.4021 1441.17 -88.5131C1444.97 -93.0444 1447.71 -98.3765 1449.16 -104.111C1450.61 -109.846 1450.75 -115.836 1449.57 -121.632C1405.34 -313.624 1387.39 -510.729 1396.18 -707.551C1271.17 -714.233 1145.8 -708.258 1021.99 -689.718C494.953 -614.674 268.869 -493.495 225.664 -469.836Z" fill="#F3F4F6"/>
<path d="M1582.59 -1251.32C1580.59 -1251.76 1578 -1251.09 1575.36 -1250.97C1572.71 -1250.84 1570.79 -1250.04 1567.94 -1249.78C1550.06 -1247.89 1524.78 -1241.66 1518.76 -1240.52C748.068 -1069.58 375.855 -746.326 157.608 -511.303C130.819 -483.529 106.063 -453.863 83.5331 -422.535C61.4869 -390.493 41.5272 -357.064 23.778 -322.456L72.7072 -362.867C120.766 -402.403 171.889 -438.061 225.592 -469.504C268.798 -493.162 494.881 -614.342 1021.88 -689.22C1145.7 -707.731 1271.08 -713.761 1396.11 -707.219C1538.5 -696.967 1679.73 -674.446 1818.25 -639.905L1841.27 -634.918C1851.92 -634.104 1862.57 -636.551 1871.79 -641.935C2117.75 -787.535 2384.74 -894.229 2663.31 -958.233C2751.72 -977.791 2841.52 -990.35 2931.9 -995.792C2949.56 -996.684 2986.74 -997.366 3005.6 -997.301C3036.08 -996.114 3039.7 -1008.78 3003.4 -1023.45C2438.05 -1251.4 1724.2 -1261.53 1582.59 -1251.32Z" fill="#F3F4F6"/>
<path d="M3805.87 -413.483C3759.58 -455.348 3709.8 -493.186 3657.07 -526.585C3634.09 -540.646 3610.42 -559.573 3604.5 -560.504C3131.29 -648.487 2629.9 -486.138 2147.28 -148.358C2119.55 -129.209 2119.66 -112.766 2138.29 -106.811C2156.91 -100.856 2190.59 -87.7973 2243.55 -67.7686C2668.2 60.5302 2862.06 366.458 3027.73 666.983L3042.92 691.234C3046.99 697.947 3052.93 703.329 3060.02 706.723C3067.1 710.118 3075.01 711.379 3082.8 710.352C3269.41 685.957 3593.57 771.706 3814.64 860.808C3820.15 863.152 3826.14 864.163 3832.12 863.757C3838.09 863.352 3843.89 861.541 3849.03 858.474C4017.95 757.832 4199.7 680.495 4389.34 628.566C4357.87 507.611 4313.92 390.255 4258.17 278.393C4026.29 -201.196 3841.59 -379.195 3805.87 -413.483Z" fill="#F3F4F6"/>
<path d="M1924.98 5062.86C1986.98 5069.51 2049.44 5070.7 2111.65 5066.43C2132.55 5066.42 2153.43 5065.1 2174.16 5062.5C2608.24 4854.48 2917.36 4428.12 3108.4 3871.02C3119.13 3838.41 3109.25 3825.97 3090.77 3832.27C3072.28 3838.57 3037.28 3847.76 2982.16 3862.72C2563.75 4009.68 2227.94 3876.87 1916.94 3731.95L1890.2 3720.75C1882.94 3717.77 1874.98 3716.94 1867.27 3718.37C1859.55 3719.8 1852.41 3723.42 1846.7 3728.8C1711 3858.54 1399.22 3980.2 1168.13 4038.99C1162.37 4040.36 1157.01 4043.04 1152.44 4046.8C1147.87 4050.56 1144.22 4055.32 1141.77 4060.7C1064.75 4242.01 963.298 4411.93 840.237 4565.74C937.527 4644.68 1042.4 4713.8 1153.31 4772.07C1621.71 5021.81 1875.49 5056.68 1924.98 5062.86Z" fill="#F3F4F6"/>
<path d="M368.264 4895.52C370.055 4897.19 372.132 4898.53 374.396 4899.47C376.232 4899.87 378.278 4901.71 380.601 4903.08C396.347 4911.04 420.125 4921.43 425.843 4924.06C1149.43 5240.08 1640.51 5197.95 1955.43 5136.01C1993.4 5129.43 2030.83 5120.02 2067.39 5107.85C2103.95 5094.49 2139.65 5078.89 2174.28 5061.13C2174.28 5061.13 2151.33 5062.27 2111.77 5065.06C2049.55 5068.82 1987.13 5067.62 1925.1 5061.49C1875.61 5055.31 1621.83 5020.44 1151.89 4770.54C1041 4712.71 936.087 4644.06 838.698 4565.58C729.658 4473.7 628.832 4372.49 537.365 4263.1C535.354 4261.1 527.848 4253.01 521.365 4245.84C513.179 4238.69 502.868 4234.43 492.022 4233.72C207.941 4205.67 -70.2346 4134.65 -332.994 4023.08C-415.917 3987 -495.82 3944.35 -571.939 3895.52C-587.288 3885.74 -617.589 3864.33 -632.612 3853.04C-656.825 3834.17 -667.242 3842.74 -646.362 3875.39C-323.244 4391.86 247.672 4819.97 368.264 4895.52Z" fill="#F3F4F6"/>
<path d="M-926.153 2922.52C-913.135 2983.4 -894.577 3042.97 -870.711 3100.47C-864.013 3120.53 -856.267 3140.23 -847.504 3159.47C-514.308 3505.19 -11.9908 3664.45 576.848 3670.22C611.665 3670.78 619.887 3657.01 608.486 3641.09C597.086 3625.17 576.891 3595.82 545.611 3547.47C274.038 3197.11 294.214 2835.34 334.362 2495.89L336.13 2466.75C336.691 2458.95 334.947 2451.15 331.115 2444.33C327.282 2437.5 321.529 2431.95 314.571 2428.37C148.207 2339.94 -64.6632 2082.3 -193.53 1880.4C-196.739 1875.43 -201.026 1871.25 -206.072 1868.16C-211.118 1865.07 -216.795 1863.16 -222.681 1862.56C-418.91 1845.87 -612.013 1802.93 -796.826 1734.9C-841.429 1851.73 -873.918 1972.82 -893.781 2096.29C-983.259 2621.57 -936.492 2873.46 -926.153 2922.52Z" fill="#F3F4F6"/>
</svg>
