<svg width="21" height="21" viewBox="0 0 21 21" fill="none" xmlns="http://www.w3.org/2000/svg">
<path d="M4.69715 6.43324C5.70622 6.43324 6.52424 5.61522 6.52424 4.60615C6.52424 3.59707 5.70622 2.77905 4.69715 2.77905C3.68807 2.77905 2.87006 3.59707 2.87006 4.60615C2.87006 5.61522 3.68807 6.43324 4.69715 6.43324Z" fill="#1D61A1"/>
<path d="M8.24943 7.81778V17.9545H11.3967V12.9417C11.3967 11.6189 11.6456 10.338 13.2856 10.338C14.9031 10.338 14.9232 11.8502 14.9232 13.0252V17.9553H18.0721V12.3964C18.0721 9.66575 17.4843 7.56726 14.2927 7.56726C12.7604 7.56726 11.7333 8.40816 11.3132 9.20396H11.2706V7.81778H8.24943ZM3.12054 7.81778H6.27286V17.9545H3.12054V7.81778Z" fill="#1D61A1"/>
</svg>
