<svg width="19" height="17" viewBox="0 0 19 17" fill="none" xmlns="http://www.w3.org/2000/svg">
<path d="M18.7185 2.54601C18.0599 2.85498 17.3525 3.06374 16.6088 3.15811C17.3762 2.67193 17.9503 1.90675 18.224 1.00534C17.503 1.45877 16.714 1.77793 15.8911 1.94895C15.3378 1.32338 14.6049 0.908748 13.8062 0.769418C13.0075 0.630088 12.1877 0.773859 11.474 1.17841C10.7604 1.58296 10.1929 2.22565 9.85957 3.00671C9.52627 3.78777 9.44583 4.66349 9.63074 5.49792C8.1699 5.42026 6.7408 5.01822 5.43619 4.31791C4.13159 3.6176 2.98064 2.63466 2.05803 1.43289C1.74256 2.00907 1.56117 2.67712 1.56117 3.38858C1.56082 4.02906 1.70978 4.65973 1.99484 5.22463C2.2799 5.78954 2.69224 6.27121 3.19528 6.62691C2.61189 6.60725 2.04137 6.44035 1.5312 6.14007V6.19018C1.53114 7.08848 1.82461 7.95913 2.36181 8.65441C2.899 9.34969 3.64684 9.82677 4.47843 10.0047C3.93723 10.1598 3.36984 10.1826 2.81909 10.0715C3.05371 10.8444 3.51074 11.5203 4.12618 12.0046C4.74163 12.4888 5.48469 12.7572 6.25133 12.7721C4.94991 13.8538 3.34267 14.4406 1.68815 14.438C1.39507 14.4381 1.10223 14.4199 0.811157 14.3837C2.49059 15.527 4.44557 16.1338 6.44219 16.1315C13.201 16.1315 16.8959 10.2043 16.8959 5.06369C16.8959 4.89668 16.8919 4.728 16.8848 4.56099C17.6035 4.01067 18.2239 3.3292 18.7169 2.54852L18.7185 2.54601Z" fill="#1D61A1"/>
</svg>
