<svg width="31" height="28" viewBox="0 0 31 28" fill="none" xmlns="http://www.w3.org/2000/svg">
<path d="M30.8098 3.62608C29.6994 4.1673 28.5066 4.53299 27.2526 4.69828C28.5465 3.84665 29.5145 2.50629 29.976 0.927288C28.7604 1.72155 27.4299 2.28063 26.0425 2.58021C25.1095 1.4844 23.8737 0.758084 22.527 0.51402C21.1803 0.269955 19.798 0.521798 18.5947 1.23045C17.3914 1.9391 16.4345 3.06491 15.8725 4.43309C15.3105 5.80127 15.1749 7.33527 15.4867 8.79694C13.0235 8.66089 10.6139 7.95665 8.41413 6.72992C6.2144 5.50318 4.27374 3.78137 2.71811 1.67622C2.1862 2.68552 1.88035 3.85573 1.88035 5.102C1.87975 6.22393 2.13092 7.32868 2.61156 8.31822C3.09221 9.30776 3.78747 10.1515 4.63565 10.7746C3.65198 10.7402 2.69001 10.4478 1.82981 9.9218V10.0096C1.82971 11.5831 2.32454 13.1082 3.23032 14.3262C4.1361 15.5441 5.39705 16.3798 6.79921 16.6915C5.88669 16.9631 4.92998 17.0031 4.00135 16.8085C4.39695 18.1624 5.16756 19.3464 6.20528 20.1947C7.24301 21.0429 8.4959 21.513 9.78856 21.539C7.5942 23.4339 4.88417 24.4618 2.09444 24.4572C1.60027 24.4574 1.10651 24.4256 0.615723 24.3622C3.44746 26.3649 6.74381 27.4278 10.1104 27.4237C21.5066 27.4237 27.7366 17.041 27.7366 8.0363C27.7366 7.74375 27.73 7.44827 27.718 7.15572C28.9298 6.19172 29.9759 4.998 30.8071 3.63047L30.8098 3.62608Z" fill="#6B7280"/>
</svg>
