<svg width="21" height="21" viewBox="0 0 21 21" fill="none" xmlns="http://www.w3.org/2000/svg">
<circle cx="10.5" cy="10.5" r="10.5" fill="#1D61A1"/>
<path d="M15.75 2.16562C14.2078 1.21406 12.4359 0.65625 10.5 0.65625V2.16562H15.75Z" fill="#ED4C5C"/>
<path d="M10.5 3.6749H17.5875C17.0297 3.11709 16.4062 2.59209 15.75 2.16553H10.5V3.6749Z" fill="white"/>
<path d="M10.5 5.18442H18.8016C18.4406 4.62661 18.0469 4.13442 17.6203 3.67505H10.5V5.18442Z" fill="#ED4C5C"/>
<path d="M10.5 6.6937H19.5891C19.3594 6.1687 19.0969 5.6437 18.8016 5.18433H10.5V6.6937Z" fill="white"/>
<path d="M10.5 8.20322H20.0813C19.95 7.67822 19.7859 7.18604 19.5891 6.69385H10.5V8.20322Z" fill="#ED4C5C"/>
<path d="M10.5 9.74522H20.3109C20.2781 9.22022 20.1797 8.72803 20.0813 8.23584H10.5V9.74522Z" fill="white"/>
<path d="M20.3109 9.74536H10.5V10.5H0.65625C0.65625 10.7625 0.65625 10.9922 0.689062 11.2547H20.3109C20.3438 10.9922 20.3438 10.7625 20.3438 10.5C20.3438 10.2375 20.3438 9.97505 20.3109 9.74536Z" fill="#ED4C5C"/>
<path d="M0.918706 12.764H20.0812C20.2125 12.2718 20.2781 11.7796 20.3109 11.2546H0.689018C0.721831 11.7468 0.787456 12.2718 0.918706 12.764Z" fill="white"/>
<path d="M1.41103 14.2735H19.5892C19.786 13.7813 19.9501 13.2892 20.0813 12.7642H0.918839C1.05009 13.2892 1.21415 13.7813 1.41103 14.2735Z" fill="#ED4C5C"/>
<path d="M2.19853 15.7828H18.8017C19.097 15.2906 19.3595 14.7984 19.5892 14.2734H1.41103C1.64071 14.7984 1.90321 15.2906 2.19853 15.7828Z" fill="white"/>
<path d="M3.3796 17.2921H17.6202C18.0468 16.8327 18.4733 16.3077 18.8015 15.7827H2.19835C2.52647 16.3405 2.95304 16.8327 3.3796 17.2921Z" fill="#ED4C5C"/>
<path d="M5.21728 18.8016H15.7829C16.472 18.375 17.0626 17.85 17.6204 17.2922H3.37978C3.93759 17.8829 4.56103 18.375 5.21728 18.8016Z" fill="white"/>
<path d="M10.5 20.3437C12.436 20.3437 14.2407 19.7859 15.7829 18.8015H5.21723C6.75942 19.7859 8.56411 20.3437 10.5 20.3437Z" fill="#ED4C5C"/>
<path d="M5.25 2.16562C4.56094 2.59219 3.9375 3.11719 3.37969 3.675C2.92031 4.13437 2.52656 4.65938 2.19844 5.18438C1.90312 5.67656 1.60781 6.16875 1.41094 6.69375C1.21406 7.18594 1.05 7.67812 0.91875 8.20312C0.7875 8.69531 0.721875 9.1875 0.689062 9.7125C0.65625 9.975 0.65625 10.2375 0.65625 10.5H10.5V0.65625C8.56406 0.65625 6.79219 1.21406 5.25 2.16562Z" fill="#428BC1"/>
<path d="M8.20312 0.984375L8.36719 1.47656H8.85938L8.46562 1.80469L8.59688 2.29688L8.20312 2.00156L7.80937 2.29688L7.94063 1.80469L7.54688 1.47656H8.03906L8.20312 0.984375Z" fill="white"/>
<path d="M9.51562 2.95312L9.67969 3.44531H10.1719L9.77812 3.77344L9.90938 4.26562L9.51562 3.97031L9.12187 4.26562L9.25313 3.77344L8.85938 3.44531H9.35156L9.51562 2.95312Z" fill="white"/>
<path d="M6.89062 2.95312L7.05469 3.44531H7.54688L7.15312 3.77344L7.28438 4.26562L6.89062 3.97031L6.49687 4.26562L6.62813 3.77344L6.23438 3.44531H6.72656L6.89062 2.95312Z" fill="white"/>
<path d="M8.20312 4.92188L8.36719 5.41406H8.85938L8.46562 5.74219L8.59688 6.23438L8.20312 5.93906L7.80937 6.23438L7.94063 5.74219L7.54688 5.41406H8.03906L8.20312 4.92188Z" fill="white"/>
<path d="M5.57812 4.92188L5.74219 5.41406H6.23438L5.84062 5.74219L5.97188 6.23438L5.57812 5.93906L5.18438 6.23438L5.31563 5.74219L4.92188 5.41406H5.41406L5.57812 4.92188Z" fill="white"/>
<path d="M2.95312 4.92188L3.11719 5.41406H3.60938L3.21563 5.74219L3.34687 6.23438L2.95312 5.93906L2.55938 6.23438L2.69062 5.74219L2.29688 5.41406H2.78906L2.95312 4.92188Z" fill="white"/>
<path d="M9.51562 6.89062L9.67969 7.38281H10.1719L9.77812 7.71094L9.90938 8.20312L9.51562 7.90781L9.12187 8.20312L9.25313 7.71094L8.85938 7.38281H9.35156L9.51562 6.89062Z" fill="white"/>
<path d="M6.89062 6.89062L7.05469 7.38281H7.54688L7.15312 7.71094L7.28438 8.20312L6.89062 7.90781L6.49687 8.20312L6.62813 7.71094L6.23438 7.38281H6.72656L6.89062 6.89062Z" fill="white"/>
<path d="M4.26562 6.89062L4.42969 7.38281H4.92188L4.52813 7.71094L4.65937 8.20312L4.26562 7.90781L3.87188 8.20312L4.00312 7.71094L3.60938 7.38281H4.10156L4.26562 6.89062Z" fill="white"/>
<path d="M8.20312 8.85938L8.36719 9.35156H8.85938L8.46562 9.67969L8.59688 10.1719L8.20312 9.87656L7.80937 10.1719L7.94063 9.67969L7.54688 9.35156H8.03906L8.20312 8.85938Z" fill="white"/>
<path d="M5.57812 8.85938L5.74219 9.35156H6.23438L5.84062 9.67969L5.97188 10.1719L5.57812 9.87656L5.18438 10.1719L5.31563 9.67969L4.92188 9.35156H5.41406L5.57812 8.85938Z" fill="white"/>
<path d="M2.95312 8.85938L3.11719 9.35156H3.60938L3.21563 9.67969L3.34687 10.1719L2.95312 9.87656L2.55938 10.1719L2.69062 9.67969L2.29688 9.35156H2.78906L2.95312 8.85938Z" fill="white"/>
<path d="M3.87183 4.26562L4.26558 3.97031L4.65933 4.26562L4.49527 3.77344L4.88902 3.44531H4.39683L4.26558 2.95312L4.10152 3.44531H3.64214L4.03589 3.74062L3.87183 4.26562Z" fill="white"/>
<path d="M1.24692 8.20312L1.64067 7.90781L2.03442 8.20312L1.87036 7.71094L2.26411 7.38281H1.80473L1.64067 6.89062L1.47661 7.38281H1.14848C1.14848 7.41562 1.11567 7.44844 1.11567 7.48125L1.37817 7.67812L1.24692 8.20312Z" fill="white"/>
</svg>
