<svg width="40" height="26" viewBox="0 0 40 26" fill="none" xmlns="http://www.w3.org/2000/svg">
<path d="M38.3106 4.4318C38.0938 3.65823 37.6714 2.95788 37.0883 2.4052C36.4888 1.83552 35.7539 1.42802 34.9532 1.22115C31.9564 0.431253 19.9501 0.431253 19.9501 0.431253C14.9448 0.374305 9.9407 0.624777 4.9661 1.18126C4.16534 1.4034 3.4319 1.82001 2.831 2.39403C2.24058 2.96211 1.81292 3.66265 1.58952 4.4302C1.05286 7.32129 0.792116 10.2568 0.810799 13.1973C0.79165 16.135 1.05176 19.0696 1.58952 21.9643C1.80814 22.7287 2.2342 23.426 2.82622 23.9893C3.41823 24.5526 4.15547 24.9595 4.9661 25.175C8.00279 25.9633 19.9501 25.9633 19.9501 25.9633C24.9618 26.0203 29.9722 25.7698 34.9532 25.2133C35.7539 25.0064 36.4888 24.5989 37.0883 24.0292C37.6787 23.4659 38.0984 22.7654 38.309 22.0026C38.8597 19.1126 39.1275 16.1759 39.1085 13.234C39.1499 10.2796 38.8825 7.32899 38.3106 4.4302V4.4318ZM16.1331 18.6611V7.735L26.1224 13.1989L16.1331 18.6611Z" fill="#6B7280"/>
</svg>
