<svg width="28" height="28" viewBox="0 0 28 28" fill="none" xmlns="http://www.w3.org/2000/svg">
<path d="M4.18636 6.82422C5.95395 6.82422 7.38687 5.39133 7.38687 3.62378C7.38687 1.85623 5.95395 0.42334 4.18636 0.42334C2.41876 0.42334 0.98584 1.85623 0.98584 3.62378C0.98584 5.39133 2.41876 6.82422 4.18636 6.82422Z" fill="#6B7280"/>
<path d="M10.4093 9.24962V27.0061H15.9225V18.2251C15.9225 15.9081 16.3584 13.6642 19.2312 13.6642C22.0646 13.6642 22.0997 16.3133 22.0997 18.3714V27.0075H27.6158V17.2699C27.6158 12.4867 26.586 8.81079 20.9953 8.81079C18.3112 8.81079 16.512 10.2838 15.7762 11.6778H15.7016V9.24962H10.4093ZM1.42505 9.24962H6.94697V27.0061H1.42505V9.24962Z" fill="#6B7280"/>
</svg>
