<svg width="22" height="22" viewBox="0 0 22 22" fill="none" xmlns="http://www.w3.org/2000/svg">
<path d="M8.66664 0.208252C10.2651 0.208053 11.8309 0.660791 13.1826 1.514C14.5342 2.36722 15.6165 3.58598 16.3039 5.02906C16.9913 6.47214 17.2558 8.08047 17.0666 9.66768C16.8774 11.2549 16.2423 12.756 15.235 13.9971L20.9516 19.7138C21.1086 19.8697 21.2007 20.0793 21.2093 20.3004C21.2179 20.5215 21.1425 20.7376 20.9982 20.9053C20.8538 21.073 20.6513 21.1798 20.4314 21.2042C20.2115 21.2286 19.9905 21.1687 19.813 21.0368L19.715 20.9516L13.9971 15.2349C12.9458 16.0879 11.7051 16.6761 10.3793 16.95C9.05353 17.2239 7.68133 17.1756 6.37808 16.8091C5.07482 16.4426 3.87858 15.7686 2.88988 14.8438C1.90119 13.9189 1.14892 12.7703 0.696311 11.4944C0.2437 10.2185 0.103966 8.85258 0.288851 7.51146C0.473737 6.17033 0.977841 4.89318 1.7588 3.78732C2.53976 2.68147 3.57475 1.77923 4.7768 1.15643C5.97885 0.533628 7.31283 0.20846 8.66664 0.208252ZM8.66664 1.95825C7.78569 1.95825 6.91336 2.13177 6.09947 2.46889C5.28558 2.80602 4.54606 3.30015 3.92313 3.92308C3.30021 4.546 2.80607 5.28552 2.46895 6.09942C2.13182 6.91331 1.95831 7.78563 1.95831 8.66658C1.95831 9.54754 2.13182 10.4199 2.46895 11.2338C2.80607 12.0476 3.30021 12.7872 3.92313 13.4101C4.54606 14.033 5.28558 14.5272 6.09947 14.8643C6.91336 15.2014 7.78569 15.3749 8.66664 15.3749C10.4458 15.3749 12.1521 14.6681 13.4101 13.4101C14.6682 12.152 15.375 10.4457 15.375 8.66658C15.375 6.88742 14.6682 5.18113 13.4101 3.92308C12.1521 2.66502 10.4458 1.95825 8.66664 1.95825Z" fill="#272A5F"/>
</svg>
