<svg width="27" height="27" viewBox="0 0 27 27" fill="none" xmlns="http://www.w3.org/2000/svg">
<path fill-rule="evenodd" clip-rule="evenodd" d="M8.39359 0.502329C9.79744 0.437701 10.245 0.42334 13.8211 0.42334C17.3971 0.42334 17.8447 0.438898 19.2474 0.502329C20.6501 0.565759 21.6075 0.789562 22.4453 1.1139C23.3225 1.44541 24.1184 1.96363 24.7766 2.63384C25.4468 3.29088 25.9639 4.08556 26.2942 4.96401C26.6197 5.80178 26.8423 6.75922 26.9069 8.15948C26.9716 9.56572 26.9859 10.0133 26.9859 13.5882C26.9859 17.1642 26.9704 17.6118 26.9069 19.0157C26.8435 20.4159 26.6197 21.3734 26.2942 22.2111C25.9639 23.0897 25.446 23.8857 24.7766 24.5437C24.1184 25.2139 23.3225 25.7309 22.4453 26.0613C21.6075 26.3868 20.65 26.6094 19.2498 26.674C17.8447 26.7387 17.3971 26.753 13.8211 26.753C10.245 26.753 9.79744 26.7375 8.39359 26.674C6.99333 26.6106 6.03588 26.3868 5.19812 26.0613C4.31957 25.7309 3.52358 25.213 2.86555 24.5437C2.19579 23.8863 1.6775 23.0907 1.34681 22.2123C1.02247 21.3746 0.799866 20.4171 0.735239 19.0169C0.670612 17.6106 0.65625 17.163 0.65625 13.5882C0.65625 10.0121 0.671808 9.56453 0.735239 8.16187C0.79867 6.75922 1.02247 5.80178 1.34681 4.96401C1.67799 4.08566 2.19668 3.29006 2.86675 2.63264C3.52384 1.96303 4.31903 1.44474 5.19692 1.1139C6.03469 0.789562 6.99213 0.566956 8.39239 0.502329H8.39359ZM19.1409 2.872C17.7526 2.80857 17.3361 2.7954 13.8211 2.7954C10.3061 2.7954 9.88959 2.80857 8.5013 2.872C7.21713 2.93064 6.52059 3.14487 6.05623 3.32559C5.44227 3.56495 5.00304 3.84859 4.54227 4.30936C4.10549 4.73429 3.76935 5.25158 3.5585 5.82332C3.37778 6.28768 3.16355 6.98422 3.10491 8.26839C3.04148 9.65668 3.02831 10.0732 3.02831 13.5882C3.02831 17.1032 3.04148 17.5197 3.10491 18.908C3.16355 20.1921 3.37778 20.8887 3.5585 21.353C3.76914 21.9239 4.10544 22.4421 4.54227 22.867C4.96714 23.3038 5.48535 23.6401 6.05623 23.8508C6.52059 24.0315 7.21713 24.2457 8.5013 24.3044C9.88959 24.3678 10.3049 24.381 13.8211 24.381C17.3373 24.381 17.7526 24.3678 19.1409 24.3044C20.4251 24.2457 21.1216 24.0315 21.586 23.8508C22.1999 23.6114 22.6391 23.3278 23.0999 22.867C23.5367 22.4421 23.873 21.9239 24.0837 21.353C24.2644 20.8887 24.4786 20.1921 24.5373 18.908C24.6007 17.5197 24.6139 17.1032 24.6139 13.5882C24.6139 10.0732 24.6007 9.65668 24.5373 8.26839C24.4786 6.98422 24.2644 6.28768 24.0837 5.82332C23.8443 5.20936 23.5607 4.77013 23.0999 4.30936C22.675 3.87261 22.1577 3.53648 21.586 3.32559C21.1216 3.14487 20.4251 2.93064 19.1409 2.872ZM12.1396 17.6465C13.0787 18.0375 14.1243 18.0902 15.098 17.7958C16.0717 17.5014 16.9129 16.8781 17.4781 16.0323C18.0432 15.1866 18.2972 14.1709 18.1967 13.1587C18.0961 12.1464 17.6473 11.2005 16.9268 10.4825C16.4675 10.0235 15.9122 9.67201 15.3007 9.4534C14.6893 9.23478 14.037 9.15445 13.3908 9.21819C12.7446 9.28193 12.1206 9.48814 11.5637 9.82199C11.0068 10.1558 10.5308 10.609 10.17 11.1489C9.80924 11.6888 9.57266 12.302 9.47731 12.9443C9.38196 13.5865 9.4302 14.242 9.61856 14.8634C9.80692 15.4848 10.1307 16.0567 10.5666 16.538C11.0026 17.0192 11.5398 17.3978 12.1396 17.6465ZM9.03627 8.80336C9.66462 8.17501 10.4106 7.67657 11.2316 7.33651C12.0525 6.99645 12.9325 6.82142 13.8211 6.82142C14.7097 6.82142 15.5896 6.99645 16.4106 7.33651C17.2316 7.67657 17.9776 8.17501 18.6059 8.80336C19.2343 9.43171 19.7327 10.1777 20.0728 10.9987C20.4128 11.8196 20.5878 12.6996 20.5878 13.5882C20.5878 14.4768 20.4128 15.3567 20.0728 16.1777C19.7327 16.9987 19.2343 17.7446 18.6059 18.373C17.3369 19.642 15.6157 20.3549 13.8211 20.3549C12.0264 20.3549 10.3053 19.642 9.03627 18.373C7.76726 17.104 7.05433 15.3828 7.05433 13.5882C7.05433 11.7935 7.76726 10.0724 9.03627 8.80336ZM22.0886 7.82916C22.2443 7.68228 22.369 7.50564 22.4552 7.30972C22.5414 7.11379 22.5874 6.90256 22.5906 6.68852C22.5937 6.47449 22.5538 6.262 22.4734 6.06365C22.3929 5.86529 22.2734 5.6851 22.1221 5.53374C21.9707 5.38238 21.7905 5.26292 21.5922 5.18245C21.3938 5.10198 21.1813 5.06212 20.9673 5.06524C20.7533 5.06836 20.542 5.1144 20.3461 5.20062C20.1502 5.28684 19.9735 5.41149 19.8266 5.5672C19.541 5.87003 19.3846 6.27226 19.3907 6.68852C19.3967 7.10478 19.5648 7.50229 19.8591 7.79666C20.1535 8.09103 20.551 8.25909 20.9673 8.26515C21.3835 8.27122 21.7858 8.11482 22.0886 7.82916Z" fill="#6B7280"/>
</svg>
