<svg width="17" height="19" viewBox="0 0 17 19" fill="none" xmlns="http://www.w3.org/2000/svg">
<path d="M16.2828 15.1512C15.8591 14.1476 15.2442 13.2359 14.4724 12.4671C13.703 11.696 12.7915 11.0813 11.7883 10.6567C11.7794 10.6522 11.7704 10.65 11.7614 10.6455C13.1607 9.63477 14.0704 7.98838 14.0704 6.13086C14.0704 3.05371 11.5772 0.560547 8.50006 0.560547C5.42291 0.560547 2.92974 3.05371 2.92974 6.13086C2.92974 7.98838 3.83941 9.63476 5.23873 10.6478C5.22974 10.6522 5.22076 10.6545 5.21177 10.659C4.20552 11.0835 3.3026 11.6922 2.52769 12.4693C1.75663 13.2388 1.14186 14.1502 0.717341 15.1534C0.300291 16.1355 0.0753671 17.1885 0.0547437 18.2553C0.0541442 18.2792 0.0583489 18.3031 0.0671103 18.3254C0.0758716 18.3477 0.0890122 18.3681 0.105758 18.3852C0.122503 18.4024 0.142515 18.416 0.164614 18.4254C0.186713 18.4347 0.210451 18.4395 0.234431 18.4395H1.58209C1.68092 18.4395 1.75953 18.3608 1.76177 18.2643C1.8067 16.5303 2.50299 14.9063 3.73384 13.6755C5.00738 12.402 6.69869 11.7012 8.50006 11.7012C10.3014 11.7012 11.9927 12.402 13.2663 13.6755C14.4971 14.9063 15.1934 16.5303 15.2383 18.2643C15.2406 18.3631 15.3192 18.4395 15.418 18.4395H16.7657C16.7897 18.4395 16.8134 18.4347 16.8355 18.4254C16.8576 18.416 16.8776 18.4024 16.8944 18.3852C16.9111 18.3681 16.9242 18.3477 16.933 18.3254C16.9418 18.3031 16.946 18.2792 16.9454 18.2553C16.9229 17.1816 16.7005 16.1372 16.2828 15.1512ZM8.50006 9.99414C7.4691 9.99414 6.49879 9.59209 5.76881 8.86211C5.03883 8.13213 4.63677 7.16182 4.63677 6.13086C4.63677 5.0999 5.03883 4.12959 5.76881 3.39961C6.49879 2.66963 7.4691 2.26758 8.50006 2.26758C9.53101 2.26758 10.5013 2.66963 11.2313 3.39961C11.9613 4.12959 12.3633 5.0999 12.3633 6.13086C12.3633 7.16182 11.9613 8.13213 11.2313 8.86211C10.5013 9.59209 9.53101 9.99414 8.50006 9.99414Z" fill="#272A5F"/>
</svg>
