<svg width="154" height="41" viewBox="0 0 154 41" fill="none" xmlns="http://www.w3.org/2000/svg">
<g clip-path="url(#clip0)">
<path d="M48.532 19.8681C48.5182 19.8231 48.4905 19.7838 48.4529 19.7559C48.4153 19.728 48.3699 19.713 48.3233 19.7131H47.9371C47.8858 19.7132 47.8359 19.7299 47.7947 19.7609C47.7535 19.7918 47.7233 19.8353 47.7085 19.885L44.9834 26.9964C44.966 27.0335 44.9574 27.0742 44.9585 27.1153C44.9596 27.1563 44.9703 27.1965 44.9897 27.2326C45.0112 27.26 45.0392 27.2816 45.0711 27.2955C45.103 27.3093 45.1378 27.3148 45.1723 27.3116H45.5773C45.6519 27.3196 45.7269 27.3003 45.7886 27.2571C45.8502 27.214 45.8945 27.1499 45.9134 27.0765L46.7128 24.8976H49.3795L50.1498 27.0776C50.1676 27.1514 50.2117 27.2161 50.2737 27.2592C50.3356 27.3024 50.4111 27.321 50.4858 27.3116H50.9743C51.0121 27.3147 51.0501 27.3085 51.0851 27.2934C51.12 27.2784 51.1507 27.2549 51.1747 27.2252C51.1952 27.1907 51.2067 27.1515 51.2081 27.1114C51.2096 27.0712 51.2009 27.0313 51.183 26.9954L48.532 19.8681ZM49.1175 24.1407H46.9853L48.0811 21.189L49.1175 24.1407Z" fill="#272A5F"/>
<path d="M52.6119 19.4737L52.2571 19.5296C52.0734 19.5622 52.0389 19.6666 52.0389 19.8216V27.0279C52.0335 27.0653 52.0366 27.1034 52.0479 27.1394C52.0593 27.1754 52.0787 27.2083 52.1046 27.2355C52.1304 27.2628 52.1622 27.2837 52.1973 27.2967C52.2324 27.3097 52.27 27.3144 52.3072 27.3104H52.6505C52.6876 27.314 52.7249 27.3091 52.7598 27.2959C52.7946 27.2828 52.8261 27.2618 52.8517 27.2346C52.8773 27.2074 52.8965 27.1746 52.9078 27.1388C52.919 27.103 52.9221 27.0651 52.9167 27.0279V19.7246C52.9157 19.5401 52.8113 19.441 52.6119 19.4737Z" fill="#272A5F"/>
<path d="M56.7136 21.813C56.1617 21.8155 55.6274 22.0094 55.2003 22.3623V19.7268C55.2003 19.5413 55.0959 19.4433 54.8965 19.4759L54.5427 19.5318C54.359 19.5645 54.3225 19.6689 54.3225 19.8238V27.0534C54.3183 27.0892 54.3223 27.1256 54.3342 27.1597C54.3462 27.1937 54.3657 27.2245 54.3913 27.2497C54.417 27.2749 54.448 27.2938 54.4821 27.3049C54.5161 27.316 54.5522 27.319 54.5876 27.3137H54.8569C55.0656 27.3137 55.1564 27.2252 55.1564 27.0238L55.1627 26.8478C55.5523 27.2188 56.0707 27.4202 56.6061 27.4086C58.2385 27.4086 58.969 25.995 58.969 24.594C58.969 22.8757 58.1028 21.813 56.7136 21.813ZM58.0704 24.6477C58.0704 25.5817 57.6811 26.6717 56.58 26.6717C56.0196 26.6717 55.5582 26.4135 55.2044 25.9096V23.2415C55.5666 22.8388 56.1438 22.5615 56.6103 22.5615C57.8126 22.5594 58.0662 23.6969 58.0662 24.6477H58.0704Z" fill="#272A5F"/>
<path d="M64.5559 26.6179H64.4766C64.3931 26.6179 64.366 26.5958 64.344 26.5431C64.3221 26.4904 64.3106 26.2553 64.3106 25.996V22.1915C64.3106 22.0059 64.2261 21.9195 64.0424 21.9195H63.7293C63.4673 21.9195 63.4392 22.1092 63.4392 22.1883L63.4329 22.3401C63.0584 21.9987 62.5712 21.8108 62.0667 21.813C60.6817 21.813 59.7184 23.0011 59.7184 24.7014C59.7184 25.9506 60.2872 27.4075 61.8945 27.4075C62.1946 27.4009 62.4897 27.3285 62.7595 27.1955C63.0292 27.0624 63.2672 26.8719 63.4569 26.6369C63.4778 26.8169 63.5532 26.9859 63.673 27.1208C63.8076 27.2536 63.9725 27.3105 64.2345 27.3105H64.5476C64.5764 27.3157 64.606 27.3142 64.6341 27.3061C64.6623 27.298 64.6882 27.2836 64.7101 27.2639C64.7319 27.2442 64.749 27.2198 64.7601 27.1924C64.7711 27.1651 64.7759 27.1355 64.7741 27.106V26.8351C64.7786 26.8052 64.7761 26.7747 64.7667 26.7461C64.7573 26.7174 64.7412 26.6914 64.7199 26.6702C64.6987 26.649 64.6727 26.6332 64.6442 26.6241C64.6156 26.615 64.5854 26.6129 64.5559 26.6179ZM61.9467 26.6285C61.285 26.6285 60.6149 26.0202 60.6149 24.6593C60.6149 23.3943 61.215 22.5509 62.1085 22.5509C62.3831 22.5529 62.6518 22.6317 62.8849 22.7785C63.1179 22.9253 63.3061 23.1344 63.4287 23.3827V25.4056C63.2356 26.0002 62.6898 26.6285 61.9509 26.6285H61.9467Z" fill="#272A5F"/>
<path d="M68.2672 21.813C67.6587 21.8154 67.0666 22.0121 66.5754 22.3749V22.2125C66.5754 22.0259 66.4773 21.9195 66.3082 21.9195H65.9888C65.9502 21.9157 65.9111 21.9207 65.8747 21.9342C65.8382 21.9477 65.8052 21.9694 65.7781 21.9975C65.7511 22.0257 65.7306 22.0596 65.7183 22.0968C65.706 22.1341 65.7021 22.1736 65.707 22.2125V27.028C65.7021 27.0654 65.7057 27.1035 65.7174 27.1394C65.7291 27.1753 65.7487 27.208 65.7747 27.2352C65.8007 27.2623 65.8324 27.2832 65.8675 27.2962C65.9026 27.3093 65.9401 27.3142 65.9773 27.3105H66.3176C66.3537 27.3143 66.3902 27.3099 66.4244 27.2977C66.4586 27.2855 66.4897 27.2657 66.5155 27.2399C66.5412 27.2141 66.561 27.1829 66.5733 27.1484C66.5857 27.1139 66.5903 27.0771 66.5869 27.0406V23.1834C67.0044 22.8134 67.6243 22.5509 68.0877 22.5509C68.9916 22.5509 69.1753 23.1096 69.1753 23.9498V27.0301C69.17 27.0673 69.1733 27.1053 69.1846 27.1411C69.196 27.1769 69.2153 27.2096 69.241 27.2368C69.2667 27.264 69.2982 27.2849 69.3331 27.2981C69.368 27.3112 69.4054 27.3162 69.4424 27.3126H69.7858C69.823 27.3163 69.8605 27.3115 69.8956 27.2984C69.9306 27.2853 69.9623 27.2644 69.9882 27.2373C70.0141 27.2101 70.0336 27.1773 70.0452 27.1414C70.0568 27.1056 70.0602 27.0675 70.0551 27.0301V23.8518C70.0509 22.4792 69.4685 21.813 68.2672 21.813Z" fill="#272A5F"/>
<path d="M71.8389 20.2939C71.5185 20.2939 71.3035 20.5048 71.3035 20.8115C71.3035 21.1183 71.5123 21.3323 71.8389 21.3323C72.1656 21.3323 72.3848 21.1215 72.3848 20.8115C72.3848 20.5016 72.1604 20.2939 71.8389 20.2939Z" fill="#272A5F"/>
<path d="M72.009 21.9205H71.6698C71.6327 21.9168 71.5953 21.9217 71.5603 21.9347C71.5253 21.9477 71.4937 21.9685 71.4678 21.9955C71.4419 22.0226 71.4224 22.0552 71.4108 22.091C71.3991 22.1267 71.3956 22.1646 71.4005 22.2019V27.0279C71.3954 27.0653 71.3988 27.1034 71.4104 27.1393C71.422 27.1751 71.4414 27.2079 71.4674 27.2351C71.4933 27.2623 71.5249 27.2832 71.56 27.2962C71.595 27.3093 71.6326 27.3142 71.6698 27.3105H72.009C72.0462 27.3143 72.0839 27.3096 72.1191 27.2966C72.1543 27.2836 72.1861 27.2628 72.2121 27.2356C72.2381 27.2083 72.2577 27.1755 72.2693 27.1396C72.281 27.1036 72.2844 27.0654 72.2793 27.0279V22.2019C72.2842 22.1645 72.2807 22.1265 72.269 22.0907C72.2573 22.0548 72.2376 22.0222 72.2116 21.9951C72.1856 21.968 72.1539 21.9472 72.1188 21.9343C72.0837 21.9214 72.0461 21.9166 72.009 21.9205Z" fill="#272A5F"/>
<path d="M78.2514 26.618H78.1784C78.0876 26.618 78.0636 26.5958 78.0406 26.5431C78.0176 26.4904 78.0082 26.2553 78.0082 25.996V22.1915C78.0142 22.1544 78.0113 22.1164 77.9999 22.0807C77.9884 22.045 77.9688 22.0125 77.9425 21.9859C77.9162 21.9594 77.884 21.9395 77.8486 21.928C77.8133 21.9164 77.7757 21.9135 77.739 21.9195H77.4259C77.1628 21.9195 77.1347 22.1093 77.1347 22.1883L77.1284 22.3401C76.7535 21.9979 76.2654 21.8098 75.7601 21.813C74.3761 21.813 73.4097 23.0011 73.4097 24.7015C73.4097 25.9507 73.9795 27.4075 75.59 27.4075C75.8905 27.4005 76.1859 27.328 76.4561 27.195C76.7263 27.062 76.9649 26.8716 77.1555 26.6369C77.1721 26.8166 77.2452 26.9862 77.3643 27.1208C77.4968 27.2536 77.6638 27.3105 77.9237 27.3105H78.2368C78.2644 27.3153 78.2927 27.3139 78.3198 27.3065C78.3468 27.299 78.3719 27.2857 78.3932 27.2674C78.4146 27.2491 78.4318 27.2263 78.4435 27.2006C78.4553 27.175 78.4613 27.147 78.4612 27.1187V26.8351C78.4657 26.806 78.4633 26.7763 78.4545 26.7483C78.4456 26.7202 78.4304 26.6947 78.41 26.6736C78.3897 26.6526 78.3647 26.6366 78.3372 26.6269C78.3097 26.6172 78.2803 26.6142 78.2514 26.618ZM75.6484 26.6285C74.9846 26.6285 74.3166 26.0202 74.3166 24.6593C74.3166 23.3943 74.9178 22.5509 75.8081 22.5509C76.0825 22.5521 76.3513 22.6301 76.5845 22.7761C76.8178 22.9222 77.0064 23.1307 77.1294 23.3785V25.4057C76.9311 26.0002 76.3853 26.6285 75.6484 26.6285Z" fill="#272A5F"/>
<path d="M81.9743 21.813C81.3663 21.8155 80.7747 22.0125 80.2845 22.3759L80.2793 22.2125C80.2793 22.0259 80.1822 21.9195 80.01 21.9195H79.6906C79.652 21.9156 79.6131 21.9206 79.5767 21.9341C79.5403 21.9477 79.5074 21.9693 79.4805 21.9975C79.4536 22.0257 79.4333 22.0597 79.4213 22.097C79.4092 22.1342 79.4057 22.1737 79.4109 22.2125V27.028C79.4058 27.0655 79.4092 27.1036 79.4209 27.1396C79.4325 27.1756 79.4521 27.2084 79.4781 27.2356C79.5041 27.2628 79.5359 27.2837 79.5711 27.2967C79.6063 27.3096 79.644 27.3144 79.6812 27.3105H80.0215C80.0575 27.3141 80.0939 27.3096 80.1279 27.2973C80.162 27.285 80.193 27.2653 80.2186 27.2395C80.2443 27.2137 80.2639 27.1825 80.2762 27.1481C80.2885 27.1137 80.2931 27.077 80.2897 27.0406V23.1834C80.7072 22.8134 81.3334 22.5509 81.7927 22.5509C82.6923 22.5509 82.8792 23.1096 82.8792 23.9498V27.0301C82.8741 27.0675 82.8775 27.1056 82.8891 27.1414C82.9006 27.1773 82.9201 27.2101 82.946 27.2373C82.9719 27.2644 83.0036 27.2853 83.0387 27.2984C83.0737 27.3115 83.1113 27.3163 83.1484 27.3126H83.4876C83.5249 27.3163 83.5624 27.3114 83.5975 27.2983C83.6326 27.2853 83.6643 27.2644 83.6903 27.2373C83.7163 27.2101 83.7359 27.1774 83.7476 27.1415C83.7593 27.1056 83.7629 27.0675 83.758 27.0301V23.8518C83.758 22.4792 83.1745 21.813 81.9743 21.813Z" fill="#272A5F"/>
<path d="M86.8472 23.9983H85.2577C85.2238 23.9923 85.189 23.9942 85.1559 24.0037C85.1229 24.0133 85.0923 24.0302 85.0667 24.0533C85.041 24.0764 85.0208 24.1051 85.0076 24.1372C84.9944 24.1693 84.9886 24.2039 84.9905 24.2386V24.5549C84.9905 24.6687 85.0364 24.8058 85.2577 24.8058H86.8472C87.0705 24.8058 87.1175 24.6687 87.1175 24.5549V24.2439C87.1175 23.9983 86.9276 24.0025 86.8472 23.9983Z" fill="#272A5F"/>
<path d="M91.2706 19.868C91.2562 19.8216 91.227 19.7812 91.1876 19.7532C91.1481 19.7252 91.1007 19.7111 91.0525 19.7131H90.6684C90.6168 19.7136 90.5667 19.7305 90.5252 19.7613C90.4836 19.7921 90.4527 19.8354 90.4367 19.8849L87.7148 26.9964C87.6985 27.0341 87.691 27.075 87.6926 27.1161C87.6942 27.1571 87.705 27.1973 87.7242 27.2336C87.7458 27.2612 87.7739 27.2829 87.806 27.2967C87.8381 27.3105 87.8731 27.316 87.9078 27.3126H88.3097C88.3849 27.3217 88.4609 27.3029 88.5235 27.2596C88.5861 27.2164 88.631 27.1517 88.6499 27.0775L89.4431 24.8986H92.1139L92.879 27.0807C92.8984 27.1537 92.9432 27.2172 93.005 27.2597C93.0668 27.3023 93.1417 27.321 93.2161 27.3126H93.7066C93.7441 27.3166 93.7819 27.3107 93.8164 27.2955C93.851 27.2804 93.8811 27.2565 93.9039 27.2262C93.9257 27.1924 93.9385 27.1535 93.9411 27.1132C93.9437 27.073 93.9359 27.0327 93.9185 26.9964L91.2706 19.868ZM91.854 24.1406H89.7207L90.8156 21.1889L91.854 24.1406Z" fill="#272A5F"/>
<path d="M100.398 21.813C99.7629 21.8138 99.1454 22.0216 98.6369 22.4054C98.2434 21.891 97.5932 21.813 97.2279 21.813C96.6595 21.8178 96.1088 22.0132 95.6624 22.3685V22.2125C95.6624 22.0259 95.5653 21.9195 95.3952 21.9195H95.0633C94.8932 21.9195 94.7951 22.0249 94.7951 22.2125V27.028C94.79 27.0653 94.7934 27.1032 94.8049 27.139C94.8164 27.1748 94.8358 27.2075 94.8616 27.2347C94.8874 27.2619 94.9189 27.2828 94.9539 27.2959C94.9888 27.309 95.0262 27.314 95.0633 27.3105H95.4046C95.4407 27.314 95.4771 27.3095 95.5113 27.2972C95.5454 27.285 95.5765 27.2653 95.6023 27.2395C95.6281 27.2138 95.648 27.1826 95.6605 27.1482C95.6731 27.1139 95.678 27.0771 95.6749 27.0406V23.1834C96.1132 22.7849 96.6361 22.5509 97.0818 22.5509C97.8364 22.5509 98.1443 22.9568 98.1443 23.9498V27.0301C98.1394 27.0674 98.143 27.1054 98.1546 27.1412C98.1663 27.177 98.1858 27.2097 98.2116 27.2368C98.2375 27.2639 98.2691 27.2848 98.304 27.298C98.339 27.3111 98.3764 27.3161 98.4136 27.3126H98.7549C98.792 27.3166 98.8296 27.3119 98.8648 27.2989C98.8999 27.2859 98.9316 27.265 98.9575 27.2377C98.9834 27.2104 99.0027 27.1776 99.0141 27.1416C99.0255 27.1056 99.0285 27.0675 99.0231 27.0301V23.8518C99.0289 23.5707 98.9988 23.2901 98.9333 23.0169C99.3086 22.7328 99.76 22.5696 100.229 22.5488C101.03 22.5488 101.357 22.9547 101.357 23.9477V27.028C101.352 27.0654 101.355 27.1034 101.367 27.1393C101.378 27.1752 101.398 27.208 101.424 27.2351C101.45 27.2623 101.481 27.2832 101.516 27.2963C101.551 27.3093 101.589 27.3142 101.626 27.3105H101.969C102.007 27.3142 102.044 27.3093 102.079 27.2963C102.114 27.2832 102.146 27.2623 102.172 27.2351C102.198 27.208 102.217 27.1752 102.229 27.1393C102.24 27.1034 102.244 27.0654 102.239 27.028V23.8518C102.235 22.4971 101.618 21.813 100.398 21.813Z" fill="#272A5F"/>
<path d="M105.727 21.813C104.257 21.813 103.228 22.961 103.228 24.6055C103.228 26.3607 104.177 27.4075 105.76 27.4075C106.212 27.4075 106.903 27.3105 107.344 27.0997C107.378 27.0916 107.408 27.0762 107.435 27.0546C107.462 27.0331 107.483 27.0059 107.498 26.975C107.513 26.9441 107.521 26.9103 107.521 26.8759C107.522 26.8415 107.515 26.8074 107.501 26.776L107.428 26.5368C107.418 26.5043 107.402 26.4744 107.379 26.4493C107.357 26.4241 107.329 26.4044 107.298 26.3915C107.267 26.3785 107.234 26.3728 107.2 26.3746C107.167 26.3763 107.134 26.3857 107.104 26.4018C106.697 26.5541 106.266 26.6316 105.831 26.6306C104.624 26.6306 104.161 25.6723 104.137 24.7383H107.421C107.753 24.7383 107.817 24.6023 107.817 24.3493V24.109C107.814 22.7375 106.979 21.813 105.727 21.813ZM105.706 22.5383C106.473 22.5383 106.931 23.0653 106.931 23.9593V24.0542H104.166C104.279 23.331 104.74 22.5383 105.708 22.5383H105.706Z" fill="#272A5F"/>
<path d="M111.194 21.8478C111.099 21.8262 111.002 21.8145 110.905 21.813C110.687 21.8131 110.473 21.8581 110.274 21.9451C110.074 22.0321 109.895 22.1594 109.746 22.319V22.2136C109.75 22.175 109.745 22.136 109.732 22.0994C109.72 22.0628 109.699 22.0294 109.673 22.0015C109.646 21.9737 109.614 21.952 109.578 21.938C109.542 21.924 109.504 21.918 109.465 21.9205H109.152C109.114 21.917 109.075 21.9223 109.039 21.936C109.003 21.9497 108.97 21.9714 108.943 21.9995C108.916 22.0276 108.896 22.0615 108.884 22.0985C108.872 22.1356 108.868 22.1749 108.873 22.2136V27.0291C108.868 27.0665 108.871 27.1046 108.883 27.1406C108.894 27.1766 108.914 27.2094 108.94 27.2367C108.966 27.2639 108.998 27.2848 109.033 27.2978C109.068 27.3108 109.105 27.3155 109.143 27.3116H109.484C109.659 27.3116 109.75 27.2125 109.75 27.0291V23.2129C110.019 22.8155 110.404 22.5625 110.743 22.5625C110.839 22.5601 110.935 22.5696 111.029 22.591C111.056 22.6016 111.084 22.606 111.113 22.6037C111.142 22.6014 111.17 22.5926 111.195 22.5779C111.22 22.5632 111.241 22.543 111.257 22.5188C111.273 22.4945 111.284 22.467 111.288 22.4381L111.351 22.1008C111.357 22.0737 111.358 22.0457 111.354 22.0183C111.349 21.9909 111.339 21.9647 111.324 21.9412C111.31 21.9177 111.291 21.8973 111.268 21.8813C111.246 21.8653 111.22 21.8539 111.194 21.8478Z" fill="#272A5F"/>
<path d="M112.654 20.2939C112.331 20.2939 112.116 20.5048 112.116 20.8115C112.116 21.1183 112.325 21.3323 112.654 21.3323C112.982 21.3323 113.2 21.1215 113.2 20.8115C113.2 20.5016 112.973 20.2939 112.654 20.2939Z" fill="#272A5F"/>
<path d="M112.824 21.9206H112.486C112.449 21.9166 112.411 21.9212 112.376 21.934C112.34 21.9469 112.309 21.9676 112.282 21.9947C112.256 22.0218 112.237 22.0546 112.225 22.0905C112.213 22.1264 112.21 22.1646 112.214 22.2021V27.0281C112.209 27.0656 112.213 27.1039 112.224 27.14C112.236 27.176 112.256 27.2089 112.282 27.2361C112.308 27.2634 112.34 27.2842 112.375 27.2971C112.411 27.31 112.448 27.3146 112.486 27.3106H112.824C112.861 27.3145 112.899 27.3098 112.934 27.2968C112.969 27.2838 113.001 27.2629 113.027 27.2357C113.053 27.2084 113.072 27.1756 113.084 27.1396C113.095 27.1036 113.099 27.0655 113.093 27.0281V22.2021C113.098 22.1647 113.095 22.1267 113.083 22.0908C113.072 22.055 113.052 22.0223 113.026 21.9952C113 21.9681 112.969 21.9473 112.934 21.9344C112.899 21.9214 112.861 21.9167 112.824 21.9206Z" fill="#272A5F"/>
<path d="M118.356 26.582C118.348 26.5345 118.324 26.4911 118.289 26.4595C118.253 26.4279 118.207 26.41 118.159 26.4091C118.118 26.4107 118.077 26.4223 118.04 26.4429C117.66 26.6051 117.252 26.6896 116.84 26.6916C115.361 26.6916 115.199 25.2095 115.199 24.5717C115.199 23.3362 115.859 22.5382 116.869 22.5382C117.265 22.5465 117.654 22.6429 118.008 22.8207C118.041 22.8358 118.076 22.844 118.112 22.845C118.161 22.8413 118.206 22.8219 118.243 22.7895C118.279 22.7572 118.304 22.7137 118.314 22.6657L118.377 22.4697C118.391 22.4411 118.398 22.41 118.4 22.3784C118.401 22.3467 118.396 22.3152 118.384 22.2856C118.373 22.256 118.356 22.2291 118.334 22.2064C118.313 22.1836 118.286 22.1656 118.257 22.1534C117.83 21.9343 117.358 21.8191 116.879 21.8171C115.332 21.8171 114.292 22.9335 114.292 24.597C114.292 26.3891 115.218 27.4116 116.832 27.4116C117.323 27.4168 117.808 27.3109 118.253 27.1017C118.284 27.0903 118.312 27.073 118.336 27.0506C118.359 27.0283 118.379 27.0014 118.392 26.9716C118.406 26.9417 118.414 26.9094 118.415 26.8766C118.416 26.8437 118.411 26.811 118.399 26.7802L118.356 26.582Z" fill="#272A5F"/>
<path d="M123.757 26.618H123.683C123.594 26.618 123.567 26.5937 123.547 26.5431C123.527 26.4925 123.513 26.2553 123.513 25.996V22.1915C123.519 22.1547 123.516 22.1171 123.505 22.0816C123.494 22.0462 123.474 22.0139 123.448 21.9874C123.423 21.9609 123.391 21.941 123.356 21.9292C123.321 21.9174 123.284 21.9141 123.247 21.9195H122.934C122.671 21.9195 122.643 22.1093 122.643 22.1883V22.3401C122.268 21.9979 121.78 21.8098 121.275 21.813C119.892 21.813 118.926 23.0011 118.926 24.7015C118.926 25.9507 119.497 27.4075 121.105 27.4075C121.404 27.4 121.698 27.3273 121.967 27.1943C122.236 27.0613 122.473 26.8711 122.663 26.6369C122.682 26.8171 122.757 26.9866 122.878 27.1208C123.011 27.2536 123.178 27.3105 123.441 27.3105H123.754C123.783 27.3155 123.813 27.3139 123.841 27.3057C123.869 27.2976 123.895 27.2831 123.916 27.2634C123.938 27.2438 123.955 27.2194 123.966 27.1921C123.977 27.1649 123.982 27.1354 123.98 27.106V26.8351C123.984 26.8048 123.982 26.7738 123.972 26.7448C123.962 26.7157 123.946 26.6895 123.924 26.6682C123.902 26.6469 123.875 26.6313 123.846 26.6225C123.817 26.6138 123.786 26.6122 123.757 26.618ZM121.155 26.6285C120.491 26.6285 119.823 26.0202 119.823 24.6593C119.823 23.3943 120.422 22.5509 121.314 22.5509C121.589 22.5523 121.858 22.6306 122.091 22.777C122.324 22.9235 122.513 23.1324 122.636 23.3806V25.4057C122.438 26.0002 121.895 26.6285 121.155 26.6285Z" fill="#272A5F"/>
<path d="M127.461 21.813C126.853 21.8153 126.261 22.012 125.77 22.3749L125.763 22.2125C125.763 22.0259 125.667 21.9195 125.497 21.9195H125.175C125.137 21.916 125.098 21.9213 125.062 21.9349C125.025 21.9486 124.993 21.9703 124.966 21.9984C124.939 22.0266 124.919 22.0604 124.907 22.0975C124.895 22.1345 124.891 22.1738 124.896 22.2125V27.028C124.891 27.0654 124.895 27.1034 124.906 27.1393C124.918 27.1752 124.937 27.208 124.963 27.2351C124.989 27.2623 125.021 27.2832 125.056 27.2963C125.091 27.3093 125.128 27.3142 125.166 27.3105H125.51C125.546 27.3139 125.582 27.3093 125.616 27.2969C125.65 27.2846 125.681 27.2648 125.706 27.239C125.732 27.2133 125.752 27.1821 125.764 27.1478C125.776 27.1135 125.781 27.0769 125.777 27.0406V23.1834C126.195 22.8134 126.821 22.5509 127.28 22.5509C128.179 22.5509 128.365 23.1096 128.365 23.9498V27.0301C128.36 27.0673 128.363 27.1051 128.374 27.1409C128.386 27.1766 128.405 27.2092 128.431 27.2363C128.456 27.2635 128.488 27.2844 128.523 27.2976C128.557 27.3108 128.595 27.316 128.632 27.3126H128.972C129.009 27.3165 129.047 27.3117 129.082 27.2988C129.117 27.2858 129.149 27.2649 129.175 27.2377C129.201 27.2105 129.221 27.1777 129.232 27.1417C129.244 27.1057 129.247 27.0676 129.242 27.0301V23.8518C129.242 22.4792 128.659 21.813 127.461 21.813Z" fill="#272A5F"/>
<path d="M48.914 31.6251C48.2617 31.2035 47.6417 31.0812 46.1513 31.0812H44.8394C44.8016 31.0762 44.7631 31.0801 44.727 31.0925C44.6908 31.1048 44.6579 31.1254 44.6309 31.1525C44.6038 31.1797 44.5832 31.2127 44.5707 31.2492C44.5582 31.2856 44.554 31.3244 44.5587 31.3627V38.3982C44.5541 38.4365 44.5582 38.4754 44.5707 38.5118C44.5832 38.5483 44.6038 38.5814 44.6309 38.6086C44.6579 38.6358 44.6908 38.6565 44.7269 38.669C44.763 38.6815 44.8015 38.6855 44.8394 38.6807H46.6137C47.8327 38.6807 48.7355 38.4109 49.2929 37.8806C49.9942 37.2144 50.3804 36.1655 50.3825 34.9289C50.3794 33.4425 49.8429 32.2387 48.914 31.6251ZM49.3931 34.9184C49.3931 35.9409 49.1113 36.7663 48.5769 37.305C48.0811 37.8079 47.4142 37.9017 46.3538 37.9017H45.5053V31.8634H46.526C47.432 31.8634 48.0321 32.0299 48.4798 32.4C49.0539 32.8817 49.3931 33.8241 49.3931 34.9215V34.9184Z" fill="#272A5F"/>
<path d="M53.7025 33.1853C52.2309 33.1853 51.2039 34.3344 51.2039 35.9768C51.2039 37.7341 52.1505 38.7819 53.7348 38.7819C54.1878 38.7819 54.8829 38.6839 55.3192 38.473C55.3521 38.4644 55.3827 38.4486 55.4088 38.4266C55.435 38.4046 55.456 38.3771 55.4703 38.3459C55.4847 38.3148 55.4921 38.2809 55.4919 38.2465C55.4918 38.2122 55.4841 38.1783 55.4695 38.1473L55.3964 37.908C55.3866 37.8758 55.3699 37.8462 55.3475 37.8213C55.325 37.7964 55.2974 37.7768 55.2666 37.7639C55.2358 37.751 55.2025 37.7451 55.1692 37.7467C55.1359 37.7483 55.1034 37.7573 55.0739 37.7731C54.6663 37.9252 54.2351 38.0023 53.8006 38.0008C52.593 38.0008 52.1307 37.0436 52.1067 36.1096H55.3881C55.721 36.1096 55.7857 35.9736 55.7857 35.7195V35.4824C55.7857 34.1288 54.9278 33.1853 53.7025 33.1853ZM53.6826 33.9095C54.4466 33.9095 54.9059 34.4419 54.9059 35.3316V35.4275H52.1401C52.2517 34.7044 52.713 33.9095 53.6826 33.9095Z" fill="#272A5F"/>
<path d="M60.4469 33.2939H60.1255C60.0574 33.2892 59.99 33.3095 59.9357 33.3512C59.8814 33.3929 59.8439 33.453 59.8301 33.5205L58.5151 37.4979L57.1676 33.4752C57.1102 33.3223 57.0027 33.2939 56.8545 33.2939H56.4819C56.4422 33.2911 56.4024 33.2981 56.366 33.3145C56.3296 33.3309 56.2977 33.356 56.2732 33.3877C56.2509 33.4196 56.2374 33.4569 56.2339 33.4957C56.2304 33.5346 56.2371 33.5737 56.2534 33.6091L57.9494 38.4667C57.9703 38.5346 58.0134 38.5934 58.0715 38.6336C58.1297 38.6738 58.1995 38.693 58.2698 38.6881H58.6653C58.7315 38.6899 58.7966 38.6705 58.8512 38.6326C58.9057 38.5947 58.947 38.5403 58.9691 38.4773L60.6766 33.6186C60.6922 33.5831 60.6987 33.5443 60.6956 33.5056C60.6925 33.4669 60.6799 33.4296 60.6588 33.3972C60.635 33.3633 60.6031 33.336 60.5661 33.3179C60.529 33.2999 60.488 33.2916 60.4469 33.2939Z" fill="#272A5F"/>
<path d="M63.6249 33.1853C62.1523 33.1853 61.1201 34.3344 61.1201 35.9768C61.1201 37.7341 62.0688 38.7819 63.651 38.7819C64.1029 38.7819 64.7991 38.6839 65.2343 38.473C65.2673 38.4645 65.298 38.4487 65.3243 38.4268C65.3506 38.4049 65.3718 38.3775 65.3864 38.3464C65.401 38.3153 65.4087 38.2814 65.409 38.247C65.4092 38.2126 65.402 38.1786 65.3877 38.1473L65.3126 37.908C65.303 37.8756 65.2863 37.8457 65.2639 37.8205C65.2414 37.7954 65.2136 37.7757 65.1826 37.7627C65.1516 37.7498 65.1182 37.744 65.0847 37.7458C65.0512 37.7476 65.0185 37.7569 64.9891 37.7731C64.5816 37.9257 64.1503 38.0028 63.7157 38.0008C62.5103 38.0008 62.0521 37.0436 62.0249 36.1096H65.3063C65.6393 36.1096 65.7009 35.9789 65.7009 35.7195V35.4824C65.705 34.1288 64.8523 33.1853 63.6249 33.1853ZM63.6051 33.9095C64.3712 33.9095 64.8294 34.4419 64.8294 35.3316V35.4275H62.0615C62.1732 34.7044 62.6334 33.9095 63.6051 33.9095Z" fill="#272A5F"/>
<path d="M67.3187 30.8463L66.9649 30.9032C66.7812 30.9338 66.7447 31.0381 66.7447 31.1942V38.4015C66.7396 38.4389 66.743 38.477 66.7546 38.5129C66.7661 38.5488 66.7856 38.5815 66.8115 38.6087C66.8374 38.6359 66.8691 38.6568 66.9042 38.6698C66.9392 38.6829 66.9767 38.6878 67.0139 38.6841H67.3542C67.3909 38.689 67.4282 38.6855 67.4634 38.6738C67.4986 38.6622 67.5307 38.6426 67.5574 38.6167C67.584 38.5908 67.6046 38.5591 67.6175 38.524C67.6304 38.489 67.6353 38.4514 67.6318 38.4142V31.0982C67.6318 30.9137 67.5159 30.8125 67.3187 30.8463Z" fill="#272A5F"/>
<path d="M71.125 33.1853C69.6492 33.1853 68.6577 34.3069 68.6577 35.9768C68.6577 37.7341 69.5552 38.7819 71.0582 38.7819C72.5434 38.7819 73.5443 37.654 73.5443 35.9768C73.5474 34.2268 72.6415 33.1853 71.125 33.1853ZM71.0686 38.0661C69.7034 38.0661 69.5563 36.5903 69.5563 35.9578C69.5563 35.4781 69.6711 33.9106 71.1218 33.9106C71.3583 33.9004 71.5932 33.9551 71.8014 34.0689C72.0096 34.1827 72.1834 34.3513 72.3043 34.5568C72.5872 35.0154 72.6425 35.5951 72.6425 35.9989C72.6415 36.4849 72.5371 38.0661 71.0686 38.0661Z" fill="#272A5F"/>
<path d="M76.788 33.1853C76.2223 33.1878 75.6756 33.392 75.2444 33.7619V33.5859C75.2444 33.2939 75.0075 33.2939 74.9313 33.2939H74.6735C74.4877 33.2939 74.3948 33.3835 74.3948 33.5648V40.7184C74.3899 40.7557 74.3935 40.7937 74.4051 40.8294C74.4168 40.8652 74.4363 40.8978 74.4622 40.9249C74.4881 40.9519 74.5197 40.9727 74.5546 40.9857C74.5896 40.9987 74.627 41.0036 74.6641 40.9999H75.0064C75.0435 41.0036 75.0809 40.9988 75.1158 40.9858C75.1507 40.9728 75.1823 40.9519 75.2081 40.9249C75.2339 40.8978 75.2533 40.8651 75.2649 40.8294C75.2764 40.7936 75.2797 40.7557 75.2747 40.7184V38.2664C75.6528 38.6032 76.1409 38.7868 76.6451 38.7819C78.3056 38.7819 79.0456 37.363 79.0456 35.9578C79.0497 34.2479 78.1835 33.1853 76.788 33.1853ZM76.6837 33.9232C77.6157 33.9232 78.1511 34.6611 78.1511 35.9588C78.1511 37.2565 77.575 38.0461 76.6054 38.0461C76.3342 38.0368 76.0699 37.9577 75.8374 37.8164C75.6049 37.6751 75.4119 37.4763 75.2768 37.2386V34.6506C75.4434 34.432 75.6558 34.2533 75.8989 34.1273C76.142 34.0014 76.4096 33.9313 76.6826 33.9222L76.6837 33.9232Z" fill="#272A5F"/>
<path d="M85.5594 33.1853C84.9238 33.1863 84.3056 33.3944 83.7966 33.7788C83.5054 33.3993 83.0002 33.1853 82.3876 33.1853C81.8189 33.1894 81.2678 33.3853 80.822 33.7419V33.5859C80.822 33.3993 80.725 33.2939 80.5548 33.2939H80.224C80.1862 33.2914 80.1483 33.2973 80.1131 33.3114C80.0779 33.3255 80.0462 33.3473 80.0203 33.3752C79.9945 33.4031 79.9751 33.4365 79.9635 33.473C79.952 33.5094 79.9486 33.548 79.9537 33.5859V38.4014C79.9486 38.4388 79.952 38.477 79.9636 38.513C79.9752 38.5489 79.9948 38.5818 80.0208 38.609C80.0469 38.6362 80.0787 38.6571 80.1139 38.67C80.1491 38.683 80.1867 38.6877 80.224 38.6839H80.5653C80.6013 38.6877 80.6377 38.6833 80.6718 38.6711C80.7059 38.6589 80.7369 38.6391 80.7625 38.6133C80.7882 38.5874 80.8077 38.5561 80.8198 38.5216C80.8319 38.4872 80.8362 38.4504 80.8325 38.414C80.833 38.4098 80.833 38.4056 80.8325 38.4014V34.5568C81.2708 34.1594 81.7968 33.9243 82.2383 33.9243C82.9971 33.9243 83.3029 34.3301 83.3029 35.3221V38.4035C83.2978 38.441 83.3012 38.4791 83.3128 38.5151C83.3245 38.551 83.3441 38.5839 83.3701 38.6111C83.3961 38.6383 83.4279 38.6592 83.4631 38.6721C83.4983 38.6851 83.5359 38.6899 83.5732 38.686H83.9135C83.9508 38.69 83.9886 38.6854 84.024 38.6725C84.0594 38.6596 84.0914 38.6387 84.1176 38.6115C84.1438 38.5843 84.1636 38.5515 84.1754 38.5154C84.1872 38.4794 84.1908 38.4411 84.1859 38.4035V35.2251C84.1898 34.9434 84.1572 34.6623 84.0888 34.3892C84.4658 34.1062 84.918 33.9436 85.3872 33.9222C86.1898 33.9222 86.5165 34.328 86.5165 35.32V38.4014C86.5112 38.4386 86.5144 38.4765 86.5258 38.5123C86.5372 38.5481 86.5565 38.5809 86.5822 38.6081C86.6079 38.6352 86.6394 38.6562 86.6743 38.6693C86.7092 38.6825 86.7466 38.6874 86.7836 38.6839H87.126C87.1632 38.6875 87.2008 38.6827 87.2358 38.6696C87.2709 38.6566 87.3027 38.6357 87.3287 38.6085C87.3546 38.5814 87.3742 38.5486 87.3859 38.5128C87.3976 38.4769 87.4012 38.4388 87.3963 38.4014V35.2251C87.3953 33.8705 86.7753 33.1853 85.5594 33.1853Z" fill="#272A5F"/>
<path d="M90.8896 33.1853C89.418 33.1853 88.3931 34.3344 88.3931 35.9768C88.3931 37.7341 89.3376 38.7819 90.9209 38.7819C91.3739 38.7819 92.069 38.6839 92.5052 38.473C92.5382 38.4642 92.5688 38.4482 92.5949 38.4261C92.6211 38.4041 92.6422 38.3766 92.6568 38.3455C92.6714 38.3144 92.6792 38.2805 92.6795 38.2461C92.6798 38.2117 92.6727 38.1776 92.6587 38.1463L92.5825 37.9101C92.5729 37.8776 92.5564 37.8476 92.534 37.8224C92.5116 37.7971 92.4839 37.7772 92.4529 37.7641C92.4219 37.751 92.3885 37.745 92.3549 37.7465C92.3214 37.7481 92.2886 37.7571 92.2589 37.7731C91.8517 37.9251 91.4208 38.0022 90.9867 38.0008C90.4345 38.0008 90.0045 37.8058 89.7071 37.422C89.4493 37.0931 89.3084 36.6409 89.2896 36.1096H92.5762C92.9123 36.1096 92.9739 35.9789 92.9739 35.7195V35.4824C92.9718 34.1288 92.1149 33.1853 90.8896 33.1853ZM90.8666 33.9095C91.6348 33.9095 92.094 34.4419 92.094 35.3316V35.4275H89.3261C89.4378 34.7044 89.8981 33.9095 90.8666 33.9095Z" fill="#272A5F"/>
<path d="M96.4921 33.1853C95.8835 33.1879 95.2913 33.385 94.8003 33.7482L94.794 33.5859C94.794 33.3993 94.698 33.2939 94.5258 33.2939H94.2064C94.168 33.2903 94.1292 33.2954 94.093 33.3089C94.0568 33.3225 94.024 33.3441 93.9972 33.3721C93.9703 33.4001 93.9501 33.4339 93.9379 33.4709C93.9257 33.5079 93.9218 33.5472 93.9267 33.5859V38.4014C93.9218 38.4389 93.9254 38.4771 93.9371 38.5131C93.9489 38.549 93.9686 38.5818 93.9947 38.609C94.0208 38.6362 94.0526 38.657 94.0879 38.67C94.1231 38.683 94.1608 38.6877 94.1981 38.6839H94.5362C94.5724 38.6878 94.609 38.6836 94.6433 38.6714C94.6777 38.6593 94.7089 38.6396 94.7348 38.6138C94.7607 38.5879 94.7805 38.5566 94.7929 38.5221C94.8053 38.4875 94.81 38.4506 94.8065 38.414V34.5568C95.224 34.1889 95.8419 33.9243 96.3074 33.9243C97.2091 33.9243 97.397 34.483 97.397 35.3221V38.4035C97.3918 38.4407 97.395 38.4787 97.4064 38.5145C97.4177 38.5503 97.437 38.583 97.4627 38.6102C97.4885 38.6374 97.5199 38.6583 97.5548 38.6715C97.5897 38.6846 97.6271 38.6896 97.6642 38.686H98.0034C98.0405 38.6895 98.0779 38.6845 98.1129 38.6714C98.1478 38.6582 98.1794 38.6373 98.2053 38.6102C98.2312 38.583 98.2506 38.5504 98.2623 38.5146C98.274 38.4788 98.2775 38.4408 98.2726 38.4035V35.2251C98.2747 33.8526 97.6902 33.1853 96.4921 33.1853Z" fill="#272A5F"/>
<path d="M102.312 38.0631C102.275 37.9324 102.179 37.8733 102.021 37.9345C101.825 38.0071 101.617 38.0428 101.408 38.0399C101.151 38.0399 100.962 37.9798 100.845 37.8628C100.688 37.712 100.664 37.4032 100.662 37.088C100.663 37.0828 100.663 37.0774 100.662 37.0722V33.9961H101.857C101.885 33.9997 101.913 33.997 101.94 33.988C101.966 33.9791 101.99 33.9641 102.01 33.9444C102.031 33.9246 102.046 33.9005 102.055 33.8738C102.065 33.8472 102.068 33.8187 102.066 33.7905V33.4996C102.069 33.471 102.066 33.442 102.057 33.4148C102.048 33.3876 102.032 33.3629 102.012 33.3425C101.992 33.3222 101.968 33.3067 101.941 33.2974C101.914 33.2881 101.885 33.2851 101.857 33.2887H100.664V32.0543C100.664 31.8561 100.547 31.7844 100.437 31.7844L100.003 31.8392C99.8216 31.874 99.783 31.9752 99.783 32.1312V33.2908H99.2559C99.2276 33.2861 99.1986 33.2881 99.1711 33.2966C99.1436 33.3051 99.1185 33.3198 99.0976 33.3397C99.0767 33.3596 99.0606 33.3841 99.0506 33.4112C99.0406 33.4384 99.0369 33.4676 99.0399 33.4964V33.7874C99.0399 33.9244 99.1119 33.9929 99.2559 33.9929H99.7851V36.9646C99.7851 37.5813 99.8112 38.0441 100.134 38.3804C100.411 38.6735 100.921 38.7789 101.304 38.7789C101.615 38.7795 101.924 38.7216 102.214 38.6081C102.245 38.6006 102.274 38.5868 102.299 38.5674C102.325 38.5481 102.346 38.5237 102.362 38.4957C102.377 38.4677 102.387 38.4367 102.39 38.4047C102.394 38.3727 102.39 38.3404 102.381 38.3098L102.312 38.0631Z" fill="#272A5F"/>
<path d="M109.609 31.0846H106.049C105.856 31.0846 105.77 31.1721 105.77 31.366V38.4026C105.765 38.4409 105.769 38.4797 105.781 38.5162C105.794 38.5526 105.814 38.5858 105.841 38.613C105.868 38.6403 105.901 38.661 105.937 38.6735C105.973 38.686 106.011 38.69 106.049 38.6852H106.43C106.468 38.6901 106.507 38.6863 106.543 38.6738C106.579 38.6614 106.612 38.6408 106.639 38.6135C106.666 38.5862 106.687 38.553 106.699 38.5165C106.712 38.4799 106.716 38.441 106.711 38.4026V35.0546H109.171C109.4 35.0546 109.429 34.9281 109.429 34.8026V34.5222C109.429 34.3999 109.4 34.2734 109.171 34.2734H106.71V31.8636H109.545C109.712 31.8636 109.802 31.8278 109.834 31.6264L109.866 31.3439C109.873 31.311 109.872 31.2771 109.865 31.2444C109.858 31.2117 109.843 31.1809 109.823 31.1541C109.794 31.1281 109.761 31.1085 109.724 31.0965C109.687 31.0845 109.648 31.0805 109.609 31.0846Z" fill="#272A5F"/>
<path d="M112.568 33.1853C111.091 33.1853 110.099 34.3069 110.099 35.9768C110.099 37.7341 110.997 38.7819 112.499 38.7819C114.001 38.7819 114.99 37.654 114.99 35.9768C114.991 34.2268 114.085 33.1853 112.568 33.1853ZM112.513 38.0661C111.147 38.0661 111.001 36.5903 111.001 35.9578C111.001 35.4781 111.112 33.9106 112.566 33.9106C113.977 33.9106 114.088 35.5098 114.088 35.9989C114.088 36.488 113.972 38.0661 112.511 38.0661H112.513Z" fill="#272A5F"/>
<path d="M119.831 33.294H119.488C119.451 33.2907 119.414 33.2958 119.379 33.309C119.344 33.3222 119.313 33.3432 119.287 33.3703C119.261 33.3974 119.242 33.43 119.23 33.4657C119.218 33.5014 119.215 33.5393 119.22 33.5765V37.3716C118.889 37.6931 118.295 38.0252 117.813 38.0252C117.466 38.0252 117.177 37.925 117.023 37.7479C116.827 37.5202 116.737 37.1723 116.737 36.6263V33.5765C116.742 33.5393 116.739 33.5014 116.727 33.4656C116.716 33.4298 116.697 33.397 116.671 33.3698C116.645 33.3426 116.614 33.3217 116.579 33.3086C116.544 33.2954 116.507 33.2905 116.47 33.294H116.129C116.092 33.2902 116.054 33.2949 116.019 33.3079C115.984 33.3209 115.952 33.3417 115.926 33.3689C115.9 33.3961 115.88 33.4289 115.868 33.4649C115.857 33.5008 115.853 33.539 115.858 33.5765V36.7222C115.858 37.4517 116.023 37.9756 116.369 38.3214C116.671 38.6271 117.1 38.7821 117.643 38.7821C118.217 38.7806 118.774 38.5821 119.223 38.2191L119.23 38.4015C119.224 38.4396 119.227 38.4787 119.238 38.5155C119.25 38.5524 119.269 38.5861 119.296 38.6139C119.322 38.6417 119.355 38.663 119.391 38.6758C119.427 38.6887 119.466 38.693 119.504 38.6882H119.832C119.868 38.6919 119.904 38.6876 119.938 38.6756C119.972 38.6637 120.003 38.6443 120.028 38.619C120.054 38.5936 120.074 38.5629 120.086 38.5289C120.099 38.495 120.104 38.4587 120.101 38.4226V33.5765C120.098 33.3288 119.932 33.294 119.831 33.294Z" fill="#272A5F"/>
<path d="M123.929 33.1853C123.32 33.1875 122.728 33.3846 122.237 33.7482V33.5859C122.237 33.3993 122.14 33.2939 121.967 33.2939H121.647C121.609 33.2907 121.57 33.2961 121.534 33.3097C121.498 33.3234 121.466 33.345 121.439 33.3729C121.412 33.4009 121.392 33.4345 121.38 33.4713C121.367 33.5081 121.363 33.5473 121.368 33.5859V38.4014C121.363 38.4387 121.366 38.4768 121.378 38.5127C121.389 38.5486 121.409 38.5813 121.435 38.6085C121.46 38.6357 121.492 38.6566 121.527 38.6696C121.562 38.6827 121.6 38.6876 121.637 38.6839H121.978C122.014 38.6875 122.05 38.6832 122.084 38.6713C122.118 38.6593 122.149 38.64 122.174 38.6146C122.2 38.5893 122.22 38.5586 122.233 38.5246C122.245 38.4907 122.25 38.4544 122.248 38.4182V34.5568C122.665 34.1889 123.285 33.9243 123.749 33.9243C124.65 33.9243 124.837 34.483 124.837 35.3221V38.4035C124.832 38.4408 124.835 38.4789 124.847 38.5148C124.858 38.5507 124.878 38.5834 124.904 38.6106C124.93 38.6378 124.961 38.6587 124.996 38.6718C125.032 38.6848 125.069 38.6897 125.106 38.686H125.444C125.482 38.6898 125.519 38.6851 125.555 38.6721C125.59 38.6591 125.622 38.6382 125.648 38.6111C125.674 38.5839 125.694 38.5511 125.705 38.5151C125.717 38.4792 125.721 38.441 125.716 38.4035V35.2251C125.711 33.8526 125.125 33.1853 123.929 33.1853Z" fill="#272A5F"/>
<path d="M130.984 30.8461L130.629 30.9041C130.596 30.9079 130.563 30.9186 130.534 30.9354C130.505 30.9522 130.479 30.9748 130.459 31.0019C130.438 31.029 130.423 31.0599 130.415 31.0929C130.407 31.126 130.405 31.1603 130.41 31.194V33.6903C130.029 33.3688 129.55 33.1904 129.053 33.1853C127.627 33.1853 126.631 34.3449 126.631 35.9989C126.631 37.3451 127.225 38.7819 128.893 38.7819C129.465 38.7812 130.017 38.5673 130.444 38.1811V38.3919C130.444 38.5943 130.536 38.686 130.743 38.686H131.012C131.049 38.6897 131.087 38.6849 131.122 38.6718C131.157 38.6588 131.189 38.6378 131.214 38.6106C131.24 38.5834 131.26 38.5506 131.271 38.5147C131.283 38.4789 131.286 38.4408 131.281 38.4035V31.077C131.288 30.9009 131.185 30.8134 130.984 30.8461ZM129.001 38.0451C128.095 38.0451 127.533 37.2544 127.533 35.9768C127.533 34.6991 128.136 33.9222 129.106 33.9222C129.373 33.9324 129.633 34.0122 129.861 34.1539C130.089 34.2955 130.277 34.4942 130.406 34.7307V37.2955C130.241 37.5172 130.029 37.6994 129.787 37.8289C129.544 37.9585 129.276 38.0323 129.001 38.0451Z" fill="#272A5F"/>
<path d="M137.335 38.2097C137.339 38.1805 137.336 38.1509 137.326 38.1231C137.317 38.0953 137.301 38.0702 137.28 38.0497C137.259 38.0292 137.234 38.014 137.206 38.0051C137.178 37.9963 137.149 37.9941 137.12 37.9988H137.046C136.96 37.9988 136.932 37.9714 136.909 37.9229C136.878 37.8565 136.878 37.633 136.878 37.3726V33.565C136.884 33.528 136.881 33.4901 136.869 33.4545C136.858 33.419 136.838 33.3866 136.812 33.3602C136.786 33.3338 136.753 33.314 136.718 33.3025C136.683 33.291 136.645 33.2881 136.609 33.2941H136.296C136.036 33.2941 136.008 33.4817 136.008 33.5618L136.001 33.7136C135.626 33.3729 135.139 33.1851 134.634 33.1865C133.25 33.1865 132.283 34.3746 132.283 36.076C132.283 37.3231 132.851 38.7831 134.463 38.7831C134.763 38.7758 135.057 38.703 135.326 38.5698C135.595 38.4366 135.833 38.2461 136.022 38.0115C136.04 38.1922 136.116 38.362 136.238 38.4953C136.37 38.6292 136.539 38.6851 136.799 38.6851H137.112C137.141 38.6906 137.172 38.6891 137.201 38.6807C137.229 38.6724 137.256 38.6575 137.278 38.6371C137.301 38.6167 137.318 38.5914 137.329 38.5631C137.34 38.5349 137.344 38.5045 137.341 38.4743C137.343 38.4699 137.343 38.4649 137.341 38.4606L137.335 38.2097ZM134.517 37.9988C133.858 37.9988 133.187 37.3906 133.187 36.0307C133.187 34.7657 133.789 33.9223 134.678 33.9223C134.952 33.9235 135.221 34.0017 135.454 34.1482C135.688 34.2947 135.876 34.5037 135.998 34.752V36.7792C135.802 37.3716 135.263 37.9999 134.517 37.9999V37.9988Z" fill="#272A5F"/>
<path d="M141.036 38.0641C140.998 37.9324 140.909 37.8712 140.741 37.9345C140.545 38.0071 140.338 38.0428 140.129 38.0399C139.874 38.0399 139.687 37.9809 139.568 37.8628C139.408 37.711 139.386 37.399 139.386 37.0827V33.9961H140.577C140.605 34.0007 140.634 33.9987 140.662 33.9903C140.689 33.9818 140.715 33.9671 140.735 33.9472C140.756 33.9274 140.773 33.9029 140.783 33.8757C140.793 33.8486 140.797 33.8194 140.794 33.7905V33.4996C140.798 33.4703 140.794 33.4405 140.785 33.4126C140.775 33.3848 140.759 33.3596 140.738 33.3392C140.717 33.3187 140.691 33.3035 140.663 33.2947C140.635 33.2859 140.606 33.2839 140.577 33.2887H139.386V32.0543C139.386 31.8551 139.265 31.7844 139.157 31.7844L138.724 31.8392C138.545 31.874 138.506 31.9752 138.506 32.1312V33.2908H137.977C137.949 33.2861 137.92 33.2881 137.892 33.2966C137.865 33.3051 137.84 33.3198 137.819 33.3397C137.798 33.3596 137.782 33.3841 137.772 33.4112C137.762 33.4384 137.758 33.4676 137.761 33.4964V33.7874C137.761 33.9244 137.834 33.9929 137.977 33.9929H138.508V36.9646C138.508 37.5813 138.531 38.042 138.855 38.3804C139.133 38.6735 139.642 38.7789 140.024 38.7789C140.336 38.7795 140.646 38.7216 140.937 38.6081C140.968 38.6004 140.997 38.5864 141.022 38.5669C141.047 38.5475 141.068 38.523 141.083 38.495C141.099 38.467 141.108 38.4361 141.111 38.4042C141.114 38.3724 141.111 38.3402 141.101 38.3098L141.036 38.0641Z" fill="#272A5F"/>
<path d="M142.35 31.6662C142.281 31.6615 142.211 31.6715 142.145 31.6956C142.079 31.7197 142.02 31.7574 141.969 31.8062C141.919 31.855 141.879 31.9139 141.852 31.9791C141.826 32.0443 141.813 32.1144 141.815 32.1849C141.815 32.5011 142.023 32.7046 142.35 32.7046C142.677 32.7046 142.894 32.4937 142.894 32.1849C142.895 32.1138 142.882 32.0432 142.854 31.9777C142.827 31.9122 142.787 31.8532 142.735 31.8043C142.684 31.7555 142.623 31.718 142.557 31.6943C142.491 31.6705 142.42 31.6609 142.35 31.6662Z" fill="#272A5F"/>
<path d="M142.518 33.2939H142.178C142.141 33.2904 142.104 33.2954 142.069 33.3085C142.034 33.3217 142.002 33.3426 141.976 33.3697C141.951 33.3969 141.931 33.4296 141.92 33.4654C141.908 33.5012 141.905 33.5392 141.91 33.5764V38.4014C141.905 38.4387 141.908 38.4767 141.92 38.5125C141.931 38.5482 141.951 38.5809 141.976 38.6081C142.002 38.6353 142.034 38.6562 142.069 38.6693C142.104 38.6825 142.141 38.6875 142.178 38.6839H142.518C142.555 38.6876 142.593 38.6828 142.628 38.6697C142.663 38.6567 142.695 38.6357 142.721 38.6086C142.747 38.5814 142.766 38.5486 142.778 38.5127C142.789 38.4769 142.793 38.4388 142.788 38.4014V33.5764C142.793 33.5391 142.789 33.501 142.778 33.4651C142.766 33.4292 142.747 33.3965 142.721 33.3693C142.695 33.3421 142.663 33.3212 142.628 33.3081C142.593 33.2951 142.555 33.2902 142.518 33.2939Z" fill="#272A5F"/>
<path d="M146.38 33.1853C144.904 33.1853 143.915 34.3069 143.915 35.9768C143.915 37.7341 144.811 38.7819 146.315 38.7819C147.8 38.7819 148.801 37.654 148.802 35.9768C148.804 34.2268 147.899 33.1853 146.38 33.1853ZM146.327 38.0661C144.962 38.0661 144.813 36.5903 144.813 35.9578C144.813 35.4781 144.925 33.9106 146.379 33.9106C147.794 33.9106 147.905 35.5098 147.905 35.9989C147.905 36.488 147.788 38.0661 146.327 38.0661Z" fill="#272A5F"/>
<path d="M152.215 33.1853C151.607 33.1879 151.015 33.385 150.525 33.7482V33.5859C150.525 33.3993 150.426 33.2939 150.256 33.2939H149.935C149.897 33.2906 149.858 33.2959 149.822 33.3096C149.786 33.3233 149.754 33.345 149.727 33.373C149.701 33.401 149.681 33.4347 149.669 33.4715C149.657 33.5084 149.653 33.5474 149.658 33.5859V38.4014C149.653 38.4386 149.656 38.4767 149.667 38.5126C149.679 38.5485 149.698 38.5813 149.724 38.6085C149.749 38.6358 149.781 38.6567 149.816 38.6698C149.851 38.6828 149.888 38.6877 149.925 38.6839H150.267C150.302 38.6874 150.338 38.683 150.372 38.6709C150.406 38.6589 150.437 38.6395 150.462 38.6142C150.488 38.5889 150.507 38.5582 150.52 38.5244C150.533 38.4905 150.538 38.4543 150.535 38.4182C150.535 38.413 150.535 38.4077 150.535 38.4014V34.5568C150.952 34.1889 151.571 33.9243 152.035 33.9243C152.939 33.9243 153.122 34.483 153.122 35.3221V38.4035C153.117 38.4407 153.121 38.4785 153.132 38.5142C153.144 38.5499 153.163 38.5826 153.189 38.6097C153.214 38.6369 153.246 38.6578 153.28 38.671C153.315 38.6842 153.352 38.6894 153.39 38.686H153.733C153.77 38.6897 153.808 38.6848 153.843 38.6718C153.878 38.6587 153.909 38.6378 153.935 38.6106C153.961 38.5834 153.981 38.5507 153.992 38.5148C154.004 38.4789 154.007 38.4409 154.002 38.4035V35.2251C154 33.8526 153.416 33.1853 152.215 33.1853Z" fill="#272A5F"/>
<path d="M9.48096 4.51387C9.50442 4.47908 9.52895 4.44218 9.55561 4.40845C9.52681 4.44429 9.49802 4.48119 9.48096 4.51387Z" fill="#3AA7DF"/>
<path d="M32.3818 6.52329C32.1266 6.23815 31.8472 5.97607 31.5469 5.74004C31.4507 5.65256 31.3488 5.57156 31.2421 5.49758C28.4179 4.67638 25.2711 5.37002 22.1358 7.15685C21.9511 7.26227 21.9469 7.35925 22.0544 7.40669C22.1619 7.45413 22.3613 7.55427 22.6733 7.71345C25.1782 8.75182 26.176 10.7495 27.0005 12.6923L27.0809 12.8536C27.1024 12.8967 27.1356 12.9328 27.1766 12.9576C27.2176 12.9824 27.2648 12.995 27.3126 12.9938C28.4606 12.9527 30.379 13.6716 31.6763 14.3569C31.7083 14.3739 31.7437 14.3834 31.7798 14.3847C31.816 14.386 31.8519 14.379 31.885 14.3642C32.9749 13.8465 34.1294 13.4805 35.3167 13.2763C35.1949 12.5132 34.997 11.7644 34.726 11.0415C33.5956 7.95908 32.5791 6.7531 32.3818 6.52329Z" fill="#D72655"/>
<path d="M38.8069 13.6906C38.8069 13.678 38.7996 13.6632 38.7955 13.6474C38.7913 13.6316 38.784 13.621 38.7788 13.6042C38.7443 13.4987 38.6744 13.3543 38.6598 13.3195C36.6413 8.892 34.2282 7.06828 32.5416 6.05838C32.341 5.93301 32.1317 5.82239 31.9154 5.72737C31.6954 5.6362 31.4699 5.55944 31.2401 5.49756L31.5449 5.74002C31.8433 5.97837 32.1225 6.24028 32.3798 6.52327C32.5771 6.75308 33.5937 7.95906 34.7229 11.0415C34.9938 11.7645 35.192 12.5132 35.3147 13.2763C35.4377 14.149 35.4859 15.0307 35.4587 15.9118V16.0572C35.4677 16.1226 35.4961 16.1836 35.5402 16.2322C36.7284 17.5262 37.7113 18.998 38.4542 20.5954C38.6854 21.1034 38.8767 21.6289 39.0261 22.1672C39.0543 22.2726 39.1065 22.4961 39.1305 22.61C39.1628 22.7955 39.2432 22.8008 39.2839 22.5625C39.9143 18.8529 39.0512 14.5318 38.8069 13.6906Z" fill="#9C1858"/>
<path d="M36.6777 28.2023C36.868 27.8683 37.0296 27.5184 37.161 27.1566C37.2152 26.9995 37.2977 26.8319 37.2956 26.795C37.209 23.8243 35.5902 21.0108 32.9475 18.5398C32.7973 18.3975 32.6991 18.4196 32.6877 18.5398C32.6762 18.6599 32.6417 18.8803 32.5906 19.226C32.3735 21.9563 30.7965 23.526 29.2153 24.9186L29.09 25.0419C29.0552 25.0753 29.0307 25.1182 29.0196 25.1653C29.0085 25.2125 29.0112 25.2619 29.0274 25.3076C29.4146 26.4018 29.3217 28.4701 29.0754 29.9206C29.0685 29.957 29.0703 29.9944 29.0804 30.0299C29.0906 30.0655 29.1089 30.0981 29.1339 30.1251C29.9538 31.013 30.651 32.0087 31.2067 33.0853C31.8886 32.7373 32.5329 32.3186 33.1292 31.8361C35.6946 29.8099 36.5191 28.4627 36.6777 28.2023Z" fill="#9C1858"/>
<path d="M31.884 36.5703C31.8983 36.5649 31.9109 36.5558 31.9205 36.5439C31.9309 36.5376 31.9424 36.5271 31.957 36.5197C32.0395 36.4533 32.1595 36.3415 32.1877 36.3141C35.7467 33.023 36.7278 30.1451 37.1641 28.2138C37.2221 27.9833 37.2626 27.7486 37.2851 27.5118C37.3032 27.2733 37.3074 27.0339 37.2977 26.7949C37.2977 26.7949 37.2455 26.9277 37.1609 27.1576C37.0276 27.5186 36.866 27.8682 36.6777 28.2033C36.5191 28.4626 35.6945 29.812 33.1322 31.836C32.5346 32.3184 31.8893 32.7374 31.2066 33.0862C30.4251 33.472 29.6114 33.787 28.7748 34.0276C28.756 34.035 28.6934 34.0582 28.6391 34.0761C28.5767 34.1011 28.5262 34.1494 28.4982 34.211C27.637 35.7455 26.5495 37.1385 25.2732 38.3423C24.8652 38.7198 24.4286 39.0645 23.9675 39.3733C23.8819 39.4324 23.6836 39.5504 23.5803 39.6063C23.4175 39.6959 23.4352 39.776 23.6732 39.7423C27.3533 39.2152 31.1628 37.0615 31.884 36.5703Z" fill="#662773"/>
<path d="M17.5873 39.0045C17.9603 39.0845 18.3396 39.1308 18.7208 39.1426C18.8479 39.1566 18.9759 39.1626 19.1038 39.1605C21.8696 38.1559 24.0186 35.7292 25.5225 32.4285C25.6123 32.2356 25.5601 32.1513 25.4443 32.1766C25.3284 32.2019 25.1113 32.2377 24.7659 32.2957C22.1263 32.9335 20.1631 31.9057 18.369 30.8199L18.2114 30.7366C18.1692 30.7142 18.1216 30.7044 18.0741 30.7084C18.0267 30.7123 17.9812 30.7297 17.9432 30.7587C17.0331 31.4713 15.0615 32.0237 13.615 32.2346C13.578 32.2401 13.543 32.2547 13.513 32.2771C13.4829 32.2995 13.4588 32.3291 13.4428 32.3632C12.8581 33.4269 12.1338 34.4059 11.2896 35.2737C11.83 35.8214 12.4245 36.3117 13.0639 36.7369C15.766 38.5638 17.2878 38.937 17.5873 39.0045Z" fill="#272A5F"/>
<path d="M8.22332 37.0016C8.23348 37.0126 8.24507 37.0222 8.25776 37.0301C8.26715 37.0385 8.28072 37.0469 8.2922 37.0575C8.37883 37.1165 8.52077 37.1945 8.55417 37.2124C12.7582 39.6075 15.7703 39.6581 17.7262 39.48C17.9608 39.4619 18.1938 39.4267 18.4234 39.3746C18.654 39.32 18.8807 39.2496 19.1018 39.1637L18.7188 39.1458C18.3385 39.1291 17.9602 39.0819 17.5874 39.0045C17.2879 38.9339 15.7661 38.5607 13.0671 36.7286C12.428 36.3034 11.8335 35.8135 11.2928 35.2664C10.689 34.6323 10.1398 33.9475 9.6511 33.2192C9.64066 33.2045 9.59996 33.1518 9.56656 33.1033C9.52186 33.0533 9.46136 33.0205 9.39539 33.0105C7.68243 32.6638 6.03204 32.0544 4.50148 31.2037C4.02056 30.9281 3.56229 30.614 3.13111 30.2644C3.04865 30.198 2.8754 30.0451 2.79086 29.9671C2.65518 29.8364 2.58212 29.8817 2.69171 30.0978C4.3324 33.4722 7.53552 36.4598 8.22332 37.0016Z" fill="#1D61A1"/>
<path d="M1.52374 24.0088C1.56426 24.3916 1.63795 24.7701 1.74397 25.1399C1.77107 25.266 1.80593 25.3903 1.84834 25.512C3.65289 27.8597 6.6003 29.1679 10.176 29.5928C10.3848 29.6149 10.4463 29.539 10.3848 29.4357C10.3232 29.3324 10.223 29.1331 10.0623 28.82C8.64282 26.4872 9.00185 24.2871 9.46525 22.2209L9.49761 22.0449C9.50603 21.9972 9.50067 21.948 9.48215 21.9034C9.46364 21.8587 9.43277 21.8203 9.39324 21.7929C8.44243 21.1435 7.3121 19.421 6.66188 18.1033C6.6462 18.0704 6.62329 18.0415 6.5949 18.0188C6.56651 17.9962 6.53337 17.9804 6.49802 17.9726C5.3151 17.7448 4.16859 17.3546 3.09034 16.813C2.74456 17.5033 2.46732 18.2265 2.26268 18.9719C1.37658 22.125 1.49661 23.702 1.52374 24.0088Z" fill="#1D61A1"/>
<path d="M0.509296 14.3958C0.501622 14.4088 0.49632 14.4231 0.49364 14.438C0.49364 14.4496 0.48529 14.4643 0.480072 14.4801C0.452936 14.5855 0.421625 14.7426 0.413275 14.7806C-0.538579 19.5602 0.348566 22.4687 1.12612 24.2882C1.21454 24.5087 1.31921 24.7223 1.43923 24.927C1.56633 25.1302 1.70576 25.3252 1.85671 25.511C1.85671 25.511 1.82018 25.374 1.75234 25.1389C1.64937 24.7683 1.57573 24.3901 1.53212 24.0078C1.50499 23.701 1.38496 22.1239 2.27002 18.9614C2.47204 18.2166 2.74648 17.4938 3.08932 16.8035C3.49721 16.0254 3.97145 15.2847 4.50667 14.5898C4.51606 14.575 4.55468 14.5191 4.58912 14.4706C4.62125 14.4119 4.63336 14.3441 4.62356 14.2777C4.42358 12.5267 4.48798 10.7552 4.81456 9.02372C4.92283 8.47615 5.07431 7.93821 5.26752 7.41505C5.30614 7.30963 5.39486 7.0988 5.44287 6.99338C5.52427 6.8226 5.45956 6.77095 5.29153 6.93962C2.62383 9.56451 0.804663 13.5693 0.509296 14.3958Z" fill="#2B9BD7"/>
<path d="M10.6228 4.00597C10.2758 4.16409 9.94395 4.35393 9.63126 4.57311C9.52007 4.63975 9.41242 4.71223 9.30875 4.79027C7.67432 7.25282 7.37269 10.4923 8.10015 14.0533C8.1419 14.2641 8.23479 14.2958 8.31515 14.2062C8.39552 14.1166 8.54476 13.9563 8.79317 13.7044C10.5351 11.6076 12.7227 11.2566 14.8028 11.0552L14.9792 11.0278C15.0265 11.021 15.0709 11.0003 15.1067 10.9682C15.1425 10.9362 15.1682 10.8942 15.1806 10.8476C15.4937 9.72802 16.7576 8.1067 17.7972 7.06518C17.8227 7.03932 17.8422 7.00798 17.8541 6.97349C17.866 6.939 17.8701 6.90224 17.8661 6.86594C17.7119 5.65995 17.7185 4.43851 17.8859 3.23431C17.1302 3.11783 16.3646 3.08003 15.6012 3.12151C12.347 3.26804 10.9025 3.87947 10.6228 4.00597Z" fill="#2B9BD7"/>
<path d="M19.3345 0H19.2458C19.1414 0 18.9807 0.0263544 18.9431 0.0305711C14.1526 0.623017 11.6999 2.38876 10.2335 3.70753C10.0527 3.85893 9.88472 4.02537 9.73144 4.2051C9.5802 4.38882 9.44075 4.58213 9.31396 4.78384L9.63438 4.56563C9.95078 4.35126 10.2829 4.16166 10.628 3.99848C10.9077 3.87936 12.3501 3.26689 15.6043 3.12141C16.3684 3.07992 17.1347 3.11771 17.8911 3.23421C18.7487 3.37918 19.5916 3.60217 20.4095 3.90044C20.4283 3.90044 20.492 3.92364 20.5483 3.94261C20.6134 3.95517 20.6807 3.94514 20.7393 3.91415C22.3238 3.16867 24.0112 2.67102 25.7439 2.43831C26.292 2.37172 26.8444 2.34811 27.3961 2.36768C27.5004 2.36768 27.7311 2.39087 27.8459 2.40457C28.0296 2.42671 28.0598 2.34975 27.8459 2.23907C24.5436 0.506004 20.2081 0.0221377 19.3345 0Z" fill="#86C2EB"/>
</g>
<defs>
<clipPath id="clip0">
<rect width="154" height="41" fill="white"/>
</clipPath>
</defs>
</svg>
