<svg width="26" height="16" viewBox="0 0 26 16" fill="none" xmlns="http://www.w3.org/2000/svg">
<path fill-rule="evenodd" clip-rule="evenodd" d="M0.400024 2.60005C0.400024 2.12266 0.589667 1.66482 0.927232 1.32726C1.2648 0.989692 1.72263 0.800049 2.20002 0.800049H23.8C24.2774 0.800049 24.7353 0.989692 25.0728 1.32726C25.4104 1.66482 25.6 2.12266 25.6 2.60005C25.6 3.07744 25.4104 3.53528 25.0728 3.87284C24.7353 4.21041 24.2774 4.40005 23.8 4.40005H2.20002C1.72263 4.40005 1.2648 4.21041 0.927232 3.87284C0.589667 3.53528 0.400024 3.07744 0.400024 2.60005Z" fill="#272A5F"/>
<path fill-rule="evenodd" clip-rule="evenodd" d="M0.400024 13.4001C0.400024 12.9227 0.589667 12.4649 0.927232 12.1273C1.2648 11.7897 1.72263 11.6001 2.20002 11.6001H23.8C24.2774 11.6001 24.7353 11.7897 25.0728 12.1273C25.4104 12.4649 25.6 12.9227 25.6 13.4001C25.6 13.8775 25.4104 14.3353 25.0728 14.6729C24.7353 15.0105 24.2774 15.2001 23.8 15.2001H2.20002C1.72263 15.2001 1.2648 15.0105 0.927232 14.6729C0.589667 14.3353 0.400024 13.8775 0.400024 13.4001Z" fill="#272A5F"/>
</svg>
